<svg xmlns="http://www.w3.org/2000/svg" width="19" height="29" fill="none" viewBox="0 0 19 29">
    <path fill="#F2994A" stroke="#000" stroke-width="2.054" d="M17.973 16.305c0 6.258-4 10.911-8.473 10.911-4.473 0-8.473-4.654-8.473-10.91 0-3.112 1.014-7.025 2.663-10.146.823-1.556 1.778-2.865 2.796-3.773C7.504 1.48 8.52 1.027 9.5 1.027s1.996.452 3.014 1.36c1.018.908 1.973 2.217 2.796 3.773 1.65 3.12 2.663 7.034 2.663 10.145z"/>
    <path stroke="#000" stroke-width="1.027" d="M16.55 6.445L12.44 9.269m0 0v3.081l-2.054 1.54m2.054-4.621l-2.89-.44-1.54 2.182M6.47 13.193l1.54-2.182m0 0H4.93m12.58.385l-1.54 2.494-2.311.844-1.218 1.283"/>
</svg>
