<svg width="105" height="110" viewBox="0 0 105 110" fill="none" xmlns="http://www.w3.org/2000/svg">
<ellipse cx="52.5" cy="98.5" rx="52.5" ry="11.5" fill="#E0E0E0"/>
<path d="M53.4158 100.198C69.8626 100.198 83.1953 80.9805 83.1953 57.2741C83.1953 50.7872 82.9102 48.0395 81.123 48.0025L69.5686 57.3291L62.5789 49.3115L54.3054 57.3291L48.029 52.9113L38.6143 57.3291L25.4883 48.657C24.2907 49.4613 23.6364 52.0221 23.6364 57.2741C23.6364 80.9805 36.9691 100.198 53.4158 100.198Z" fill="#4354A4" stroke="black" stroke-width="7.00636"/>
<path d="M71.5922 54.8746L62.0425 61.4401M62.0425 61.4401V68.6023L57.2677 72.1835M62.0425 61.4401L55.3234 60.4155L51.7423 65.4888M48.1612 70.562L51.7423 65.4888M51.7423 65.4888H44.58M80.9044 60.4155L72.2324 65.4888L73.3499 70.2238L69.9417 69.2735L64.006 74.2175" stroke="black" stroke-width="2.38742"/>
<path d="M52.1068 53.5657C56.0337 38.0215 68.319 41.3709 62.5787 31.8038C58.1609 24.4407 55.1065 24.877 52.1068 23.1317" stroke="black" stroke-width="7.19944"/>
<path d="M51.7794 2.02421C46.1508 -3.34264 35.9079 3.66044 35.9079 3.66044C35.9079 3.66044 29.1667 7.35834 26.4178 14.9505C22.9817 24.4406 37.2169 30.3311 48.9978 31.9673C60.7787 33.6036 59.3061 23.9498 62.5786 19.6956C65.851 15.4413 58.8152 8.73277 51.7794 2.02421Z" fill="black"/>
<path d="M33.7632 15.4775C33.7632 19.5728 31.1453 22.6186 28.2177 22.6186C25.2901 22.6186 22.6722 19.5728 22.6722 15.4775C22.6722 13.4409 23.3358 10.88 24.4154 8.8376C24.9538 7.8191 25.5787 6.96214 26.2449 6.36808C26.9111 5.77403 27.5764 5.47794 28.2177 5.47794C28.8591 5.47794 29.5244 5.77403 30.1906 6.36808C30.8567 6.96214 31.4816 7.8191 32.02 8.8376C33.0997 10.88 33.7632 13.4409 33.7632 15.4775Z" fill="white" stroke="black" stroke-width="1.34437"/>
<path d="M28.8722 17.6224C28.8722 19.7614 27.4803 21.4953 25.7634 21.4953C24.0464 21.4953 22.6545 19.7614 22.6545 17.6224C22.6545 15.4834 24.0464 12.3324 25.7634 12.3324C27.4803 12.3324 28.8722 15.4834 28.8722 17.6224Z" fill="black"/>
<path d="M48.4894 16.9241C48.4894 22.6559 44.7781 27.0409 40.4896 27.0409C36.201 27.0409 32.4897 22.6559 32.4897 16.9241C32.4897 14.067 33.4273 10.4908 34.9504 7.63805C35.7105 6.2145 36.5994 5.00341 37.5589 4.15632C38.5181 3.3094 39.5071 2.86 40.4896 2.86C41.472 2.86 42.461 3.3094 43.4202 4.15632C44.3797 5.00341 45.2686 6.2145 46.0287 7.63805C47.5518 10.4908 48.4894 14.067 48.4894 16.9241Z" fill="white" stroke="black" stroke-width="1.34437"/>
<path d="M42.9438 20.1661C42.9438 23.069 41.0392 25.4223 38.6896 25.4223C36.3401 25.4223 34.4354 23.069 34.4354 20.1661C34.4354 17.2632 36.3401 12.9869 38.6896 12.9869C41.0392 12.9869 42.9438 17.2632 42.9438 20.1661Z" fill="black"/>
</svg>
