<svg xmlns="http://www.w3.org/2000/svg" width="18" height="20" fill="none" viewBox="0 0 18 20">
    <path fill="#000" d="M5.143 5.781V4.22c0-.258.217-.469.482-.469h1.607c.265 0 .482.21.482.469V5.78a.477.477 0 0 1-.482.469H5.625a.477.477 0 0 1-.482-.469zm5.625.469h1.607c.265 0 .482-.21.482-.469V4.22a.477.477 0 0 0-.482-.469h-1.607a.477.477 0 0 0-.482.469V5.78c0 .258.217.469.482.469zM5.625 10h1.607c.265 0 .482-.21.482-.469V7.97a.477.477 0 0 0-.482-.469H5.625a.477.477 0 0 0-.482.469V9.53c0 .258.217.469.482.469zm5.143 0h1.607c.265 0 .482-.21.482-.469V7.97a.477.477 0 0 0-.482-.469h-1.607a.477.477 0 0 0-.482.469V9.53c0 .258.217.469.482.469zm-3.054 3.281V11.72a.477.477 0 0 0-.482-.469H5.625a.477.477 0 0 0-.482.469v1.562c0 .258.217.469.482.469h1.607c.265 0 .482-.21.482-.469zm3.054.469h1.607c.265 0 .482-.21.482-.469V11.72a.477.477 0 0 0-.482-.469h-1.607a.477.477 0 0 0-.482.469v1.562c0 .258.217.469.482.469zM18 18.594V20H0v-1.406c0-.258.217-.469.482-.469h.784V.937c0-.519.43-.937.964-.937h13.54c.535 0 .964.418.964.938v17.187h.784c.265 0 .482.21.482.469zm-14.806-.508h4.52v-2.617c0-.258.217-.469.482-.469h1.608c.265 0 .482.21.482.469v2.617h4.52V1.914L3.214 1.875l-.02 16.21z"/>
</svg>
