<svg xmlns="http://www.w3.org/2000/svg" width="97" height="73" fill="none" viewBox="0 0 97 73">
    <path fill="#4A90E2" fill-rule="evenodd" d="M49.44 30.876c3.54-.282 6.916 1.041 9.745 3.104 3.646 2.659 6.736 6.461 8.828 10.468.222.172.441.348.66.526 1.163.952 2.3 1.957 3.309 3.075.563.625 2.04 2.144 1.398 3.101-.136.204-.36.32-.583.4-.627.226-1.281.34-1.9.604-.763.325-1.555.781-2.045 1.476-.139.197-.175.43-.362.518-.198.092-.572.056-.79.077l-1.307.129c-1.024.1-2.095.112-3.096.36l-4.61 1.142c-.942.233-2.025.362-2.92.746-1.333.573-2.606 1.412-3.882 2.103l-1.852 1.003c-.301.163-.508.165-.86.192l-2.55.197c-.411.032-.608.198-.662-.215l-.593-4.54-.313-2.4c-.019-.143-.013-.85-.13-.935-.073-.054-.502.062-.581.071l-1.157.142-2.5.308c-.068.008-.442.004-.485.06-.049.064.045.437.053.518l.265 2.529c.01.097.13.55.067.63-.044.056-.358.063-.421.074l-2.412.395c-.575.094-1.328.09-1.872.306-.312.125-.621.444-.892.643l-3.92 2.895c-.595.439-1.396.327-2.12.383l-8.353.638.021-.783.11-4.148.048-1.808c.003-.114-.042-.45.032-.534.1-.112.542-.16.68-.202l1.383-.41 4.057-1.205 4.01-1.191 1.371-.408c.106-.031.475-.073.548-.162.093-.113.051-.595.066-.738.073-.699.176-1.394.302-2.085.909-4.982 3.032-10.043 6.97-13.367 2.603-2.197 5.868-3.412 9.245-3.682zm.624 9.992c-.35-.413-.94-1.087-1.558-.975-.503.091-.777.717-.953 1.133-.705 1.672-.923 3.589-1.142 5.376-.138 1.121-.249 2.248-.32 3.375l7.533-.581c-.118-.803-.213-1.613-.356-2.412-.072-.4-.27-.761-.438-1.131-.757-1.655-1.582-3.39-2.766-4.785z" clip-rule="evenodd"/>
    <path fill="#000" fill-rule="evenodd" d="M84.918 8.27h.061c1.667.045 3.136 1.121 4.276 2.26.563.563 1.077 1.225 1.319 1.995.28.89.187 1.87-.025 2.763-.47 1.974-1.043 3.959-1.688 5.883-.318.947-.778 1.875-1.017 2.844-.198.798.634 1.379.666 2.2.032.827-.523 1.604-1.286 1.9-.324.126-.717.02-1.016.15-.274.117-.37.466-.423.733-.071.364-.058.729-.038 1.096.013.225-.043.592.066.793.075.138.212.183.33.277.16.13.268.29.41.437.232.244.456.376.519.733l.1-.243c.174.318.303.47.138.773.511-.05.814.881.949 1.234.245.647.414 1.318.66 1.965.338.887.78 1.762.996 2.69.181.78.324 1.58.485 2.365.09.443.17.892.335 1.313.064.164.184.274.258.42.101.2.062.305.067.524.008.39.253.643.33 1.022.083.404.15.814.233 1.22.167.816.477 1.632.552 2.459.087.96.273 1.91.366 2.87.082.84-.057 1.742.118 2.554.155.72-.037 1.38-.106 2.096-.017.182.262 1.264-.186 1.056.084.255.202.377.208.657.006.261-.061.53-.116.784-.106.49-.177 1.025-.385 1.485-.235.52-.593.582-1.08.76-.33.12-.923.551-1.183.09-.155.474-.457.147-.796.12.002 0-.194.073-.23.078-.12.016-.26-.04-.38-.05-.295-.025-.585.015-.874.075-.667.139-1.311.33-1.988.427-1.32.189-2.615.1-3.938.182-2.589.162-5.22.026-7.811-.044-.278-.008-.578.032-.853-.011-.295-.047-.36-.187-.59-.328-.384-.233-.809-.006-1.206.08-1.167.25-2.386.268-3.562.51-2.39.493-4.592 1.465-6.881 2.285-.993.355-2.158.931-3.228.956-1.297.028-.99-1.254-.752-2.078-.75.2-1.927 1.112-2.688.583-.908-.631.247-1.68.301-2.421-1.622.338-3.462 1.079-5.11.477-.316-.116-.592-.361-.932-.401-.353-.042-.727.084-1.085.081-.814-.005-1.605-.113-2.42-.013-1.814.224-3.604.347-5.434.396-1.842.048-3.684.158-5.528.153-.935-.002-1.888-.113-2.822-.063-.366.02-1.155.286-1.413-.087-.258.31-.478.103-.81.137.062-.006-.172.13-.208.143-.174.065-.337.045-.52.043-.484-.005-.937.223-1.42.201-.122-.006-.214-.041-.318-.083-.024-.01-.018-.116-.058-.125-.236-.053-.175.092-.325.165-.166.081-.412-.05-.317.2-.45-.02-.878.132-1.288-.136.194.43-.484.073-.66.066-.295-.012-.552.135-.846.17-.352.04-.705-.124-1.05-.024-.27.078-.362.267-.643.17-.238-.081-.387-.259-.503-.453-.16-.268-.18-.388-.565-.392-.286-.004-.573.058-.861.057-.33 0-.694-.036-.996.122-.324.17-.515.428-.876.561-1.62.598-3.399.44-5.09.43-.713-.005-1.236.061-1.436-.755-.17-.69-.237-1.412-.399-2.107-.198-.852-.415-1.643-.854-2.405-.426-.738-.784-1.502-1.154-2.27-.771-1.595-1.844-2.953-3.04-4.25-.455-.493-.976-1.042-.997-1.752-.016-.613.253-1.248.606-1.736.315-.435.834-.927 1.421-.825.354.06.586.347.85.562.288.234.602.394.95.522.81.299 1.49.625 2.193 1.14.71.521 1.374 1.105 1.988 1.737 1.18 1.213 2.388 2.474 3.065 4.045.268.619.438 1.216.62 1.857.179.63.666.457 1.213.367.668-.111 1.338-.17 2.01-.24.253-.026.61-.034.761-.274.168-.264-.024-.607-.04-.881-.007-.147.041-.255.053-.397.014-.163-.034-.311-.034-.473 0-.348.162-.658.432-.868.504-.395 1.24-.63 1.838-.847.816-.297 1.69-.442 2.53-.654.946-.238 1.897-.452 2.848-.669.934-.212 1.867-.43 2.812-.595.554-.096 1.155-.06 1.692-.236.57-.186.476-.763.474-1.273-.003-.843.101-1.711.224-2.545.262-1.772.886-3.506 1.453-5.2.546-1.63 1.223-3.195 2.34-4.519 1.087-1.288 2.422-2.454 3.806-3.412 1.442-.998 3.048-1.718 4.553-2.609-.329-.252-.721-.468-.91-.857-.214-.439-.123-.964-.114-1.433.01-.53.026-.995.215-1.5.103-.276.502-.8.44-1.1-.102-.505-1.202-.873-1.607-1.08-.635-.326-1.272-.657-1.857-1.068-.562-.395-1.09-.87-1.43-1.475-.097-.172-.177-.352-.239-.54-.068-.208-.02-.28-.228-.295-.332-.024-.83.31-1.11.458-1.444.762-3.029 1.788-4.731 1.72-.618-.025-1.313-.22-1.531-.866-.288-.851.313-1.73.84-2.346-1.028.162-2.923.669-3.734-.251-.54-.613-.133-1.586.32-2.118.599-.702 1.453-1.13 2.241-1.577-.967-.37-2.038-.606-2.89-1.226-.813-.592-.713-1.502-.07-2.2.687-.747 1.889-1.13 2.834-1.407 1.159-.34 2.31-.313 3.505-.29 2.143.04 3.985.834 5.743 2.032.93.634 1.846 1.318 2.67 2.086.774.72 1.599 1.39 2.36 2.118.74.705 1.32 1.579 2.1 2.237.662.56 1.388 1.354 2.23 1.603.893.264 1.696.7 2.596.96 1.021.294 1.898.786 2.845 1.256 3.971 1.97 8.235 3.253 12.421 4.669 2.142.723 4.298 1.233 6.484 1.786 1.098.278 2.118.426 3.25.375.262-.011.511-.018.77.019.188.026.332.098.5-.015.243-.163.335-.587.48-.828-.807-.25-1.597-.522-1.965-1.351-.231-.523-.352-1.132-.453-1.693-.055-.301-.056-.606-.103-.908-.025-.167-.104-.34-.098-.511-.018.095-.619-.217-.706-.275-.336-.223-.398-.674-.395-1.054.003-.43.133-.901.423-1.227.138-.154.301-.27.501-.328.142-.041.33.013.455-.029.555-.184.617-1.562.696-2.064.173-1.106.346-2.161.72-3.221.683-1.932 1.562-3.81 2.61-5.57.896-1.507 1.792-3.35 3.764-3.371h.061zM67.869 54.685c-.798.14-1.563.422-2.334.662-.72.225-1.45.368-2.188.514-1.47.29-2.973.556-4.422.934-.408.106-.623.347-.979.514-.264.124-.511-.002-.786-.012-.597-.023-1.26.173-1.835.319-1.357.343-2.561.941-3.79 1.602-.11.058-.852.4-.817.54.029.116.973-.193 1.123-.216.76-.117 1.504-.357 2.259-.507.62-.122 1.246-.205 1.863-.342.686-.151 2.149-.678 2.207.46.063 1.23-1.29 1.608-2.104 2.181.09.157 1.396-.36 1.558-.412.555-.18 1.07-.503 1.634-.641.984-.24.864.85.322 1.334-.603.538-1.6.701-1.934 1.53.438.158 1.011-.14 1.414-.288.53-.194 1.06-.386 1.592-.572 1.195-.416 2.33-.99 3.53-1.387 2.464-.814 5.069-1.047 7.645-1.192-.23-.893-.48-1.782-.687-2.68-.088-.386-.17-.772-.236-1.162-.046-.27-.007-.918-.193-1.132-.226-.26-.816.106-1.136.099-.314-.007-.544-.17-.834-.221-.276-.049-.602.029-.872.075zm-46.298 5.172c0 .427-.073.945.486.995.453.04 1.339.092 1.7-.231-.346-.17-.74-.199-1.107-.297-.383-.101-.737-.268-1.079-.467zm9.24-7.782c-.17.002-.457.191-.612.244-.285.097-.574.18-.864.256-.872.232-1.995.268-2.395 1.208-.2.468-.339 1.674-1.033 1.67-.617-.004-.987-.899-1.427-1.217-.456-.328-1.177-.105-1.668.038-.499.145-1.273.331-1.217.965.04.457.122.872.118 1.338-.005.593-.055 1.184-.055 1.777.35-.481.656-1.449 1.277-1.643.627-.195.981.904 1.144 1.325.202.522.456 1.114.471 1.68.005.177-.102.664.021.81.11.13.53.036.665.022.84-.088 1.676-.197 2.519-.27.432-.038.55-.133.508-.6-.033-.367-.044-.717.002-1.085.205-1.645 1.214-3.149 2.92-3.435 1.029-.172 2.23-.046 3.256.12.396.063.825.255 1.227.239.297-.013.202-.03.263-.31.042-.196.133-.364.282-.5.117-.107.266-.046.377-.187.08-.101.068-.24.106-.357.074-.227.207-.535.473-.592.427-.093.881.481 1.097.777.223.306.29 1.22.648 1.34.414.138.906-.406.992-.748.116-.461-.03-.96-.1-1.416-.005-.033-.025-.336-.048-.356-.06-.053-.515-.038-.595-.042-.396-.02-.793-.02-1.19-.021-1.554-.004-3.076-.157-4.62-.32.224.366.608.968.214 1.355-.292.287-.819.143-1.186.202-.518.084-1.391.577-1.885.217-.696-.509.091-1.383.35-1.863.055-.103.26-.466.173-.587-.075-.104-.097-.035-.207-.034zm-11.589 5.652c-.355.109-.713.213-1.076.294-.426.094-1.086.003-1.293.473-.158.357-.08.934.048 1.29.147.407.491.512.897.543.474.037.955-.04 1.423-.105.185-.026.381-.072.569-.072.111 0 .336.101.435.018.128-.108.044-.723.034-.87-.025-.366-.094-.726-.113-1.092-.014-.262.085-.62-.222-.675-.19-.035-.536.145-.702.196zM47.915 50.5c-.266.046-.53.079-.8.075-.165-.003-.364-.06-.518.032-.284.169-.241.614-.232.891.012.337.042.679.077 1.014.035.32.21.849-.038 1.123-.174-.192-.26-.819-.597-.796-.37.026-.2.62-.167.832.182 1.176.389 2.353.551 3.532.077.56.177 1.117.229 1.68.034.379.046.72.467.797.39.073.829-.05 1.223-.06.407-.01.64-.038.873-.406-.56-.123-1.446-.048-1.761-.642-.368-.693.407-1.316.789-1.79.293-.363.891-1.572 1.435-.854.196.258.23.653.33.954.16.488.357.97.55 1.447 1.762-.913 3.571-1.737 5.494-2.25-.49-.83-1.097-1.58-1.464-2.48-.411-1.01-.752-2.047-1.172-3.054-.666.39-1.379-.556-2.042-.594-1.049-.06-2.2.37-3.227.548zm-10.442 6.807c-.365.218-.903.643-.99 1.082-.152.76.711.252.978.086.558-.348 1.105-.46 1.745-.245.822.275 1.58.739 2.462.386.438-.175 1.412-.55 1.15-1.223-.182-.463-.712-.066-.992.1-.733.436-1.34.16-2.073-.154-.733-.314-1.559-.463-2.28-.032zM11.446 53.41c-.293.417.303.327.565.368.548.085 1.112.523.96 1.143-.146.604-.723.982-.832 1.616-.095.545-.004 1.235.52 1.534.295.168.939.237 1.235.044.453-.295-.11-.733-.409-.88-.397-.193-.717-.297-.52-.806.239-.619.703-1.094.662-1.803-.034-.587-.343-1.255-.906-1.499-.403-.174-1-.108-1.275.283zm40.057-1.8c.507-.022.528.593.502.895-.035.414.04.855.048 1.27.012.549.127 2.349-.842 2.081-.623-.172-1.135-.77-1.636-1.155-.46-.354-1.631-.78-1.707-1.45-.086-.759.838-.9 1.367-1.021.755-.172 1.488-.587 2.268-.62zm-2.47-19.989c-.805.078-1.605.198-2.37.466-.518.181-1.313.311-1.68.756-.318.385-.18.934-.283 1.389-.14.615-.563.53-.973.147-.492-.46-.634-.793-1.318-.362-1.415.893-2.538 2.212-3.66 3.434.868.264 2.571.328 2.86 1.416.157.596-.318 1.029-.745 1.353-.551.42-1.127.808-1.666 1.244-.504.407-1.632 2.028-1.952.603-.197-.882.173-1.794.016-2.665-.683 1.105-1.376 2.206-2.002 3.345-.533.97-.843 2.006-1.098 3.078.398.026.813-.177 1.207-.057.379.115.556.475.583.848.045.633-.246 1.276-.392 1.884-.1.417-.216 1.363-.722 1.499-.577.155-.94-.736-1.197-1.098-.245.378-.24.93-.276 1.364-.025.297-.19.854.143 1.019.313.154.971-.04 1.305-.053.62-.027 1.252-.077 1.872-.059.586.018 1.448.332 1.677-.39.156-.492.293-2.26 1.124-1.301.37.426.658.911 1.015 1.345.36.438.687.467 1.224.445 1.064-.044 2.102.16 3.143.326.913.145.793-.632.78-1.325-.021-1.073.191-2.195.307-3.263.275-2.538.84-5.045 1.708-7.445-.727-.249-2.03.753-2.566-.008-.442-.625.125-1.486.356-2.071.288-.73.434-1.491.904-2.138.148-.204.36-.477.646-.408.246.059.345.374.483.552.44.564 1.002.987 1.393 1.603.24.377.425.779.503 1.221.021.122-.006.37.08.473.264.316 1.097.311 1.467.505 1.264.662 1.708 2.588 2.199 3.803.138.342.275.685.349 1.048.049.242.046.55.177.767.286.475 1.175.051 1.61-.022.732-.123 1.459-.24 2.193-.344.447-.063 1.099-.226 1.44.172.354.412.15 1.062-.027 1.505-.29.723-.66 1.413-.966 2.129-.244.57-.365 1.306-.834 1.747-.406.38-1.078.49-1.556.18-.273-.177-.973-1.89-1.158-1.814.334 1.323.823 2.672 1.34 3.935.158.388.43 1.18.832 1.39.332.174 1.087-.156 1.427-.22.322-.06.959-.323 1.267-.13.374.233.42.856.461 1.242.031.287-.025.5.322.486.245-.01.492-.13.727-.19.545-.14 1.111-.232 1.666-.322 1.284-.208 2.568-.415 3.851-.629 1.104-.183 2.193-.182 3.19-.707.505-.266 1.085-.348 1.623-.526.533-.176 1.065-.29 1.624-.357 1.22-.145 2.409-.287 3.616-.535.66-.136 1.32-.278 1.976-.43.585-.136 1.15-.35 1.732-.484.484-.11.881-.027 1.089-.578.148-.396.114-.839.152-1.252.174-1.891-.485-3.792-.62-5.672-.044-.61-.058-1.22-.103-1.828-.02-.28-.008-1.091-.333-1.241-.029.223-.006.598-.258.708.123-.054-.039.605-.048.671-.034.263.052.544.006.802.036.091.02.16-.046.206-.046.037-.08.084-.1.14-.004.185.05.076.052.14.026.633-.08 1.288-.035 1.936.048.685.2 1.357.316 2.033.104.607.216 1.214.303 1.824.06.427.106.918-.124 1.307-.435.739-1.695.658-2.429.78-1.22.2-2.441.381-3.666.552-.47.066-.945.215-1.421.223-.508.008-.78-.198-1.1-.574-.645-.758-1.062-1.619-1.6-2.443-.301-.464-.552-.586-1.06-.727-.472-.131-.851-.477-1.235-.764-.807-.604-1.849-1.26-2.378-2.15-.557-.935.228-1.246.98-1.501-.183-.488-.542-.88-.838-1.3-.336-.477-.64-.972-1.002-1.431-.737-.936-1.474-1.868-2.19-2.821-.611-.815-1.23-1.587-2.01-2.247-.784-.663-1.657-1.206-2.518-1.762-.45-.29-1.24-1.03-1.807-.955-.552.074-.77 1.104-.908 1.537-.158.498-.214 1.19-.582 1.582-.541.575-1.103-.33-1.361-.748-.474-.765-.958-1.523-1.43-2.288-.215-.35-.526-.681-.654-1.077-.001-.005-.061-.345 0-.297l.003.004-.004-.005c-.135-.134-.634-.162-.82-.178l-.017-.002c-.393-.037-.79-.008-1.181.03zM43.76 53.065c-.452-.003-.902.05-1.352.086-.396.033-.758-.028-1.153-.052-.488-.03-.73.022-.617.528.082.368.18.859.557 1.014.509.21 1.194.182 1.736.262.398.058.795.111 1.192.178.263.044.398.09.521-.209.103-.25.037-.586.002-.845-.027-.199-.011-.549-.105-.726-.14-.264-.505-.235-.78-.236zm21.079-5.046c.664.61 1.11 1.389 1.612 2.127.307.451.906 1.17.47 1.717-.37.466-1.232.36-1.75.382-.815.035-1.48.405-2.256.595-1.953.48-.331-2.814-.06-3.501.19-.482.385-.962.615-1.427.103-.21.31-.821.567-.901.373-.116.565.791.802 1.008zm-16.78-6.926c-.31.596-.361 1.42-.508 2.07-.45 1.989-.713 4.014-.92 6.04 1.029-.41 2.114-.438 3.2-.538.787-.073 1.51-.156 2.297-.122.134.006.52.074.63-.04.149-.154-.03-.583-.075-.744-.238-.878-.343-1.785-.614-2.657-.277-.89-.613-1.778-.97-2.638-.262-.628-.62-1.242-1.254-1.55-.555-.27-1.442-.481-1.786.18zm-4.237 3.87c.424.641.961 1.202 1.375 1.85.293.458.637 1.307-.068 1.599-.247.102-.54.058-.799.063-.4.007-.798.041-1.2.032-.38-.01-.756-.056-1.135-.076-.238-.012-.538.006-.749-.131-.564-.37-.156-1.123.026-1.605.193-.512.453-.997.704-1.482.175-.337.435-1.023.831-1.16.47-.163.82.614 1.015.91zM64.373 37.7c.932 1.087 1.74 2.272 2.502 3.483.372.59.733 1.189 1.093 1.787.236.39.413.891.7 1.246.655.808.837-.956.934-1.339.356-1.413.797-2.816 1.19-4.22h-.402c-1.604-.001-3.14-.025-4.702-.499-.442-.134-.844-.425-1.315-.458zm-3.386.274c.507.376 3.753 2.583 2.388 3.434-.283.176-.745.096-1.064.122-.41.032-.825.072-1.23.144-.523.095-1.031.259-1.557.342-.418.067-.972.144-1.345-.117-.616-.431-.242-1.278-.039-1.826.29-.778.563-1.82 1.28-2.284.167-.108.372-.493.551-.528.282-.056.81.56 1.016.713zm17.91-18.304c-.245.188-.256.578-.32.854-.213.926-.51 1.828-.688 2.765-.172.913-.226 1.812-.141 2.738.056.617.063 1.377.436 1.902.448.63 1.334.597 2.005.784.645.179 1.284.734.58 1.311-.25.205-.578.239-.825.436-.305.244-.48.68-.61 1.038-.106.294-.103.35.216.454.145.048.292.078.445.065.349-.03.66-.26.952-.434.744-.442 1.604-1.033 2.493-1.1.284-.021.607.095.883.003.257-.087.178-.14.223-.38.177-.952.249-1.886.733-2.747.239-.425.87-1.295 1.293-.633.177.276.24.411.632.326.32-.068.67-.322.607-.691-.06-.35-.517-.587-.794-.74-.37-.203-.628-.18-1.03-.228-1.103-.132-.33-1.752-.17-2.36.1-.382.217-.875-.046-1.22-.4-.525-1.27-.353-1.819-.278-.758.103-1.586.158-2.296-.188-.751-.365-1.071-1.19-1.775-1.59-.26-.148-.716-.293-.984-.087zm3.296 6.692c.522-.007.268.74.126.99-.302.53-.946.735-1.513.54-.447-.155-.932-.837-.23-.95.336-.054.669-.032.988-.193.181-.091.416-.384.63-.387zm-1.31-3.97c.325.198-.228 1.459-.321 1.714-.152.417-.287.686.099 1.007.268.224.798.416.545.862-.234.411-1.037.239-1.363.037-.475-.293-.335-.854-.23-1.315.068-.302.694-2.657 1.27-2.305zm-51.056-8.283c1 .428 2.022.816 3.08 1.074.925.226 1.834.47 2.787.416.881-.049.986.82.483 1.422-.274.327-.591.319-.99.332-.467.014-.89.144-1.34.26-.686.178-1.38.328-2.045.578-.342.13-.68.281-.986.485-.193.128-.621.36-.395.539.328.259 1.302-.096 1.692-.12.909-.054 1.816-.136 2.72-.25.442-.056.917-.111 1.336-.273.274-.105.578-.367.889-.3.655.14.33 1.125.032 1.446-.441.476-1.112.686-1.682.957-.4.189-.795.39-1.183.6-.183.1-1.035.476-1.008.76.028.299.701.148.868.12 1.11-.18 2.113-.611 3.139-1.052.45-.194.905-.379 1.344-.593.308-.15.61-.377.949-.445.8-.16.765.736 1.08 1.22.937 1.44 2.746 2.055 4.154 2.887.532.314 1.04.677 1.53 1.056.348.27.488.643.878.286.324-.297.481-.734.69-1.112.242-.44.566-.83.814-1.267.367-.646.477-1.261-.33-1.5-.846-.248-1.516-.62-2.235-1.151-1.766-1.303-3.23-2.966-4.991-4.278-1.631-1.216-3.36-2.357-5.405-2.683-1.938-.31-4.064-.234-5.875.586zm52.896 9.352c-.041.359-.13 1.124-.626 1.152-.603.035-.198-1.803.144-2.01.547-.33.517.555.482.858zm-5.61-.146c-.752.063-.966.89-.214 1.183l.215-1.183zm2.79-.726c-.096.375-.061.978-.362 1.266-.423.406-.607-.19-.604-.53.003-.336.17-1.176.617-1.22.383-.038.064.407.35.484zm8.122-8.351c-.275.574.02 1.141.185 1.706-.337.11-.793.027-.999.385-.13.225-.107.565-.068.81.032.2.196.47.06.656-.18.244-.623.131-.82.402-.299.413-.13 1.354.29 1.664.59.436.237-.633.201-.828-.09-.488.413-.422.757-.619.185-.105.218-.126.26-.352.04-.207.019-.372-.03-.596-.168-.76.125-.636.726-.804.52-.144.478-.56.346-.998-.103-.343-.412-.906-.078-1.198.133-.116.334-.043.363-.285.019-.163-.2-.432-.314-.526-.396-.324-.718.247-.88.583z" clip-rule="evenodd"/>
</svg>
