<svg xmlns="http://www.w3.org/2000/svg" width="66" height="87" fill="none" viewBox="0 0 66 87">
    <path fill="#4C5DF2" stroke="#000" stroke-width="6.396" d="M34.856 104C52.056 104 66 84.053 66 59.447c0-6.733-.298-9.585-2.167-9.623l-12.084 9.68-7.31-8.322-8.653 8.322-6.564-4.585-9.846 4.585-13.728-9c-1.252.834-1.937 3.492-1.937 8.943C3.711 84.053 17.655 104 34.856 104z"/>
    <path stroke="#000" stroke-width="2.18" d="M53.865 56.957l-9.987 6.814m0 0v7.434l-4.994 3.717m4.994-11.15l-7.027-1.064-3.746 5.266m-3.745 5.265l3.745-5.266m0 0h-7.49m37.99-5.265l-9.07 5.266 1.168 4.914-3.564-.986-6.208 5.131"/>
    <path stroke="#000" stroke-width="6.573" d="M33.487 55.598c4.107-16.134 16.955-12.657 10.951-22.588-4.62-7.642-7.814-7.19-10.951-9"/>
    <path fill="#000" d="M33.144 2.101c-5.886-5.57-16.599 1.698-16.599 1.698S9.495 7.638 6.62 15.518c-3.593 9.85 11.294 15.964 23.615 17.662 12.321 1.699 10.78-8.322 14.203-12.737C47.861 16.027 40.503 9.064 33.144 2.1z"/>
    <path fill="#fff" stroke="#000" stroke-width="1.227" d="M14.392 16.065c0 4.273-2.756 7.496-5.89 7.496-3.132 0-5.888-3.223-5.888-7.496 0-2.128.697-4.8 1.832-6.93.566-1.062 1.225-1.961 1.932-2.586.707-.626 1.424-.947 2.125-.947.7 0 1.417.321 2.124.947.707.625 1.366 1.524 1.932 2.586 1.135 2.13 1.833 4.802 1.833 6.93z"/>
    <path fill="#000" d="M9.187 18.291c0 2.22-1.455 4.02-3.251 4.02-1.796 0-3.251-1.8-3.251-4.02 0-2.22 1.455-5.49 3.25-5.49 1.797 0 3.252 3.27 3.252 5.49z"/>
    <path fill="#fff" stroke="#000" stroke-width="1.227" d="M29.793 17.566c0 5.973-3.9 10.585-8.456 10.585-4.556 0-8.456-4.612-8.456-10.585 0-2.98.985-6.704 2.583-9.676.798-1.483 1.734-2.75 2.747-3.637 1.013-.888 2.068-1.369 3.126-1.369 1.058 0 2.113.48 3.126 1.369 1.013.888 1.949 2.154 2.747 3.637 1.598 2.972 2.583 6.696 2.583 9.676z"/>
    <path fill="#000" d="M23.904 20.931c0 3.013-1.992 5.456-4.45 5.456-2.457 0-4.449-2.443-4.449-5.456 0-3.013 1.992-7.451 4.45-7.451 2.457 0 4.449 4.438 4.449 7.451z"/>
</svg>
