<svg xmlns="http://www.w3.org/2000/svg" width="168" height="25" fill="none" viewBox="0 0 168 25">
    <path fill="#000" d="M13.016 7.14c-.808-1.032-2.425-1.52-3.65-1.52-1.417 0-3.394.648-3.394 2.361 0 4.163 10.527 1.49 10.527 9.494 0 5.108-4.1 7.525-8.814 7.525C4.747 25 2.16 24.128 0 22.126l3.586-3.938c1.033 1.36 2.714 2.161 4.395 2.161 1.65 0 3.49-.776 3.49-2.393 0-4.195-10.719-1.938-10.719-9.558 0-4.876 4.235-7.43 8.718-7.43 2.586 0 5.067.681 7.004 2.394l-3.458 3.779zM29.035 12.592h-4.267v5.236c0 1.68.192 2.906 2.29 2.906.52 0 1.552-.065 1.969-.449v4.035c-1.065.384-2.258.488-3.395.488-3.226 0-5.715-1.32-5.715-4.747v-7.46h-3.098V8.725h3.098v-4.66h4.843v4.652h4.267v3.874h.008zM45.309 24.416h-4.651v-2.13h-.064c-.648 1.225-2.226 2.522-4.587 2.522-4.907 0-5.812-3.234-5.812-7.429V8.718h4.843v7.685c0 1.809.032 4.138 2.522 4.138 2.522 0 2.906-1.969 2.906-4.002V8.726h4.843v15.69zM63.913 24.416h-4.459V22.35h-.064c-.744 1.129-2.618 2.458-4.811 2.458-4.651 0-7.717-3.362-7.717-8.11 0-4.362 2.714-8.365 7.173-8.365 2 0 3.874.553 4.97 2.066h.065V0h4.843v24.416zM55.58 12.592c-2.426 0-3.875 1.617-3.875 3.97 0 2.354 1.457 3.971 3.875 3.971 2.425 0 3.874-1.617 3.874-3.97 0-2.354-1.457-3.97-3.874-3.97zM81.348 21.702c-1.553 1.969-4.099 3.098-6.62 3.098-4.843 0-8.718-3.234-8.718-8.238 0-5.003 3.875-8.237 8.718-8.237 4.523 0 7.365 3.226 7.365 8.238v1.52h-11.24c.385 1.842 1.778 3.034 3.65 3.034 1.586 0 2.65-.808 3.459-1.905l3.386 2.49zm-4.099-6.909c.032-1.617-1.224-2.97-2.97-2.97-2.129 0-3.298 1.457-3.426 2.97h6.396zM83.734 8.717h4.65v2.13h.065c.648-1.225 2.225-2.522 4.587-2.522 4.907 0 5.811 3.226 5.811 7.429v8.662h-4.843V16.73c0-1.81-.032-4.131-2.522-4.131-2.521 0-2.905 1.97-2.905 4.002v7.814h-4.843V8.717zM111.671 12.592h-4.266v5.236c0 1.68.192 2.906 2.289 2.906.521 0 1.553-.065 1.969-.449v4.035c-1.064.384-2.257.488-3.394.488-3.226 0-5.715-1.32-5.715-4.747v-7.46h-3.098V8.725h3.098v-4.66h4.843v4.652h4.266v3.874h.008zM114.249 1.553h2.129V11.63h12.793V1.553h2.129v22.862h-2.129V13.56h-12.793v10.855h-2.129V1.553zM148.359 20.221c0 1.097.16 3.426.16 4.203h-1.937c-.032-1.097-.064-2.33-.128-2.618h-.096c-.777 1.65-2.682 3.002-5.108 3.002-4.651 0-5.683-3.162-5.683-6.428V9.494h1.937v8.782c0 2.425.68 4.779 3.746 4.779 2.874 0 5.172-2.001 5.172-6.108v-7.46h1.937V20.22zM151.969 0h1.937v12.112h.065c1.192-2.066 3.746-3.002 5.971-3.002 4.587 0 7.845 3.298 7.845 7.845 0 4.555-3.258 7.845-7.845 7.845-2.225 0-4.779-.937-5.971-3.002h-.065v2.618h-1.937V0zm7.981 23.063c3.651 0 5.908-2.746 5.908-6.108 0-3.362-2.257-6.1-5.908-6.1-3.522 0-6.236 2.746-6.236 6.1 0 3.354 2.714 6.108 6.236 6.108z"/>
</svg>
