<svg width="105" height="106" viewBox="0 0 105 106" fill="none" xmlns="http://www.w3.org/2000/svg">
<ellipse cx="52.5" cy="94.5" rx="52.5" ry="11.5" fill="#E0E0E0"/>
<path d="M82.7625 57.8464C82.7625 80.0447 68.5722 96.5547 52.7031 96.5547C36.8339 96.5547 22.6436 80.0447 22.6436 57.8464C22.6436 46.8068 26.2404 32.9255 32.0926 21.8546C35.011 16.3339 38.3984 11.6887 42.0093 8.46861C45.6202 5.24853 49.2266 3.64357 52.7031 3.64357C56.1795 3.64357 59.7859 5.24853 63.3968 8.46861C67.0077 11.6887 70.3952 16.3339 73.3135 21.8546C79.1657 32.9255 82.7625 46.8068 82.7625 57.8464Z" fill="#F2994A" stroke="black" stroke-width="7.28715"/>
<path d="M77.7124 22.8634L63.1381 32.8832M63.1381 32.8832V43.814L55.8509 49.2793M63.1381 32.8832L52.8837 31.3196L47.4184 39.0621M41.953 46.8047L47.4184 39.0621M47.4184 39.0621H36.4877M81.1214 40.4285L75.6561 49.2793L67.458 52.2701L63.1381 56.8246" stroke="black" stroke-width="3.64357"/>
</svg>
