<svg width="105" height="106" viewBox="0 0 105 106" fill="none" xmlns="http://www.w3.org/2000/svg">
<ellipse cx="52.5" cy="94.5" rx="52.5" ry="11.5" fill="#E0E0E0"/>
<path d="M82.5973 57.8604C82.6852 80.0802 68.6311 96.6242 52.888 96.6865C37.1449 96.7488 22.9603 80.3165 22.8724 58.0967C22.8287 47.0531 26.3507 33.155 32.1254 22.0602C35.0053 16.5271 38.3545 11.8691 41.9303 8.63599C45.5067 5.40239 49.0783 3.78971 52.5204 3.7761C55.9625 3.76248 59.5468 5.34685 63.1486 8.55205C66.7499 11.7568 70.1359 16.3881 73.0595 21.8983C78.9218 32.947 82.5536 46.8168 82.5973 57.8604Z" fill="#F2C94C" stroke="black" stroke-width="7.28715"/>
<path d="M73.4799 19.829L58.9907 29.8488V40.7795L51.7461 46.2449" stroke="black" stroke-width="3.64357"/>
</svg>
