<svg width="37" height="36" viewBox="0 0 37 36" fill="none" xmlns="http://www.w3.org/2000/svg">
<rect x="0.75" width="36" height="36" rx="10" fill="#F5F7FF"/>
<path fill-rule="evenodd" clip-rule="evenodd" d="M23.25 28H24.25C25.3546 28 26.25 27.1046 26.25 26V18C26.25 17.7239 26.4739 17.5 26.75 17.5H28.5021C28.9531 17.5 29.1736 16.9498 28.8473 16.6383L20.1309 8.31818C19.3581 7.58046 18.1419 7.58046 17.369 8.31818L8.65271 16.6383C8.32642 16.9498 8.54687 17.5 8.99795 17.5H10.75C11.0261 17.5 11.25 17.7239 11.25 18V26C11.25 27.1046 12.1454 28 13.25 28H14.25V22.9999C14.25 21.3431 15.5931 19.9999 17.25 19.9999H20.25C21.9068 19.9999 23.25 21.3431 23.25 22.9999V28Z" fill="#4C70F2"/>
<path d="M23.25 28H22.25V29H23.25V28ZM28.8473 16.6383L29.5378 15.915L29.5378 15.915L28.8473 16.6383ZM20.1309 8.31818L19.4405 9.04154L19.4405 9.04154L20.1309 8.31818ZM17.369 8.31818L16.6786 7.59483V7.59483L17.369 8.31818ZM8.65271 16.6383L9.34318 17.3617H9.34318L8.65271 16.6383ZM14.25 28V29H15.25V28H14.25ZM24.25 27H23.25V29H24.25V27ZM25.25 26C25.25 26.5523 24.8023 27 24.25 27V29C25.9069 29 27.25 27.6569 27.25 26H25.25ZM25.25 18V26H27.25V18H25.25ZM26.75 16.5C25.9216 16.5 25.25 17.1716 25.25 18H27.25C27.25 18.2761 27.0261 18.5 26.75 18.5V16.5ZM28.5021 16.5H26.75V18.5H28.5021V16.5ZM28.1568 17.3617C27.8305 17.0502 28.051 16.5 28.5021 16.5V18.5C29.8553 18.5 30.5166 16.8493 29.5378 15.915L28.1568 17.3617ZM19.4405 9.04154L28.1568 17.3617L29.5378 15.915L20.8214 7.59483L19.4405 9.04154ZM18.0595 9.04154C18.4459 8.67268 19.0541 8.67268 19.4405 9.04154L20.8214 7.59483C19.6622 6.48825 17.8378 6.48825 16.6786 7.59483L18.0595 9.04154ZM9.34318 17.3617L18.0595 9.04154L16.6786 7.59483L7.96223 15.915L9.34318 17.3617ZM8.99795 16.5C9.44902 16.5 9.66948 17.0502 9.34318 17.3617L7.96223 15.915C6.98336 16.8493 7.64471 18.5 8.99795 18.5V16.5ZM10.75 16.5H8.99795V18.5H10.75V16.5ZM12.25 18C12.25 17.1716 11.5784 16.5 10.75 16.5V18.5C10.4739 18.5 10.25 18.2761 10.25 18H12.25ZM12.25 26V18H10.25V26H12.25ZM13.25 27C12.6977 27 12.25 26.5523 12.25 26H10.25C10.25 27.6569 11.5931 29 13.25 29V27ZM14.25 27H13.25V29H14.25V27ZM15.25 28V22.9999H13.25V28H15.25ZM15.25 22.9999C15.25 21.8954 16.1454 20.9999 17.25 20.9999V18.9999C15.0409 18.9999 13.25 20.7908 13.25 22.9999H15.25ZM17.25 20.9999H20.25V18.9999H17.25V20.9999ZM20.25 20.9999C21.3546 20.9999 22.25 21.8954 22.25 22.9999H24.25C24.25 20.7908 22.4591 18.9999 20.25 18.9999V20.9999ZM22.25 22.9999V28H24.25V22.9999H22.25Z" fill="#4C70F2"/>
</svg>
