<svg width="25" height="24" viewBox="0 0 25 24" fill="none" xmlns="http://www.w3.org/2000/svg">
<path d="M18.25 22H7.25C6.14543 22 5.25 21.1046 5.25 20V12C5.25 11.7239 5.02614 11.5 4.75 11.5H2.99795C2.54687 11.5 2.32642 10.9498 2.65271 10.6383L11.369 2.31818C12.1419 1.58046 13.3581 1.58046 14.131 2.31818L22.8473 10.6383C23.1736 10.9498 22.9531 11.5 22.5021 11.5H20.75C20.4739 11.5 20.25 11.7239 20.25 12V20C20.25 21.1046 19.3546 22 18.25 22Z" stroke="#7D7D8D" stroke-width="2"/>
<path d="M9.25 15.9999C9.25 14.8954 10.1454 13.9999 11.25 13.9999H14.25C15.3546 13.9999 16.25 14.8954 16.25 15.9999V21.9999H9.25V15.9999Z" stroke="#7D7D8D" stroke-width="2"/>
</svg>
