<svg width="37" height="36" viewBox="0 0 37 36" fill="none" xmlns="http://www.w3.org/2000/svg">
<rect x="0.375" width="36" height="36" rx="10" fill="#F5F7FF"/>
<path fill-rule="evenodd" clip-rule="evenodd" d="M8.78879 10.4532C9.24896 10.166 9.7926 10 10.375 10H26.375C26.9574 10 27.501 10.166 27.9612 10.4532L18.375 18.2134L8.78879 10.4532ZM7.54023 12.0156C7.43317 12.324 7.375 12.6552 7.375 13V23C7.375 24.6569 8.71815 26 10.375 26H26.375C28.0319 26 29.375 24.6569 29.375 23V13C29.375 12.6552 29.3168 12.324 29.2098 12.0156L19.6334 19.7679C18.8996 20.3619 17.8504 20.3619 17.1166 19.7679L7.54023 12.0156Z" fill="#4C70F2"/>
</svg>
