<svg width="252" height="232" viewBox="0 0 252 232" fill="none" xmlns="http://www.w3.org/2000/svg">
<path fill-rule="evenodd" clip-rule="evenodd" d="M214.976 67.4682C226.547 85.7843 235.586 106.277 234.124 127.892C232.629 150.001 224.441 173.191 206.903 186.822C190.268 199.751 166.414 191.309 145.962 196.416C124.311 201.821 105.898 222.38 84.1442 217.472C61.5739 212.38 45.6114 191.686 34.742 171.322C24.1222 151.426 19.6636 128.094 24.6967 106.099C29.4148 85.4806 45.7925 70.5778 61.1385 55.9673C75.3299 42.4562 90.6991 30.4791 109.602 25.2631C129.421 19.7946 150.689 18.3615 169.753 25.9971C189.238 33.8015 203.785 49.7545 214.976 67.4682Z" fill="white"/>
<path d="M200.89 146.145V164.435C200.89 166.609 199.13 168.368 196.957 168.368H56.1826C54.009 168.368 52.2494 166.608 52.2494 164.435V146.145C52.2494 145.727 52.3143 145.313 52.4474 144.917L72.3639 84.4185C72.8926 82.8043 74.3986 81.7159 76.0994 81.7159H177.04C178.741 81.7159 180.247 82.8043 180.776 84.4185L200.692 144.917C200.825 145.313 200.89 145.727 200.89 146.145Z" fill="#E2E2E6"/>
<path d="M200.89 146.145V164.435C200.89 166.609 199.13 168.368 196.957 168.368H173.308C173.227 140.486 173.657 94.468 173.784 81.7159H177.04C178.741 81.7159 180.247 82.8043 180.776 84.4185L200.692 144.917C200.825 145.313 200.89 145.727 200.89 146.145Z" fill="#EEEEF0"/>
<path d="M52.2483 146.145V164.435C52.2483 166.609 54.0079 168.368 56.1815 168.368H79.8304C79.9109 140.486 79.481 94.468 79.3542 81.7159H76.0983C74.3975 81.7159 72.8918 82.8043 72.3628 84.4185L52.4463 144.917C52.3135 145.313 52.2483 145.727 52.2483 146.145Z" fill="#EEEEF0"/>
<path d="M185.946 144.915L173.818 108.077C173.287 106.464 171.781 105.374 170.083 105.374H83.0559C81.3578 105.374 79.8515 106.464 79.3204 108.077L67.1926 144.915C67.0619 145.312 66.9955 145.727 66.9955 146.145V164.436C66.9955 166.607 68.7563 168.368 70.9281 168.368H182.211C184.383 168.368 186.144 166.607 186.144 164.436V146.145C186.144 145.727 186.077 145.312 185.946 144.915Z" fill="#A4A4AF"/>
<path d="M126.57 137.974C142.447 137.974 155.319 134.356 155.319 129.892C155.319 125.428 142.447 121.809 126.57 121.809C110.692 121.809 97.8204 125.428 97.8204 129.892C97.8204 134.356 110.692 137.974 126.57 137.974Z" fill="#7D7D8D"/>
<path d="M186.143 146.146V164.436C186.143 166.607 184.382 168.369 182.211 168.369H168.53C170.7 168.369 172.462 166.607 172.462 164.436V146.146C172.462 145.729 172.395 145.312 172.266 144.915L160.138 108.075C159.607 106.463 158.1 105.373 156.402 105.373H170.083C171.782 105.373 173.288 106.463 173.819 108.075L185.947 144.915C186.077 145.312 186.143 145.729 186.143 146.146Z" fill="#7D7D8D"/>
<path d="M200.891 149.941V184.067C200.891 186.239 199.13 188 196.958 188H56.1809C54.0091 188 52.2483 186.239 52.2483 184.067V149.941C52.2483 147.769 54.0091 146.008 56.1809 146.008H85.2167C86.7194 146.008 88.0908 146.865 88.7505 148.215L94.456 159.897C95.1154 161.248 96.4868 162.104 97.9898 162.104H155.149C156.652 162.104 158.023 161.248 158.683 159.897L164.389 148.215C165.048 146.865 166.419 146.008 167.922 146.008H196.958C199.13 146.008 200.891 147.769 200.891 149.941Z" fill="#E2E2E6"/>
<path d="M200.891 149.941V184.067C200.891 186.238 199.129 188 196.958 188H181.984C184.155 188 185.916 186.238 185.916 184.067V149.941C185.916 147.77 184.155 146.008 181.984 146.008H196.958C199.129 146.008 200.891 147.77 200.891 149.941Z" fill="#C5C5CC"/>
<path d="M72.567 179.618H64.0802C62.7993 179.618 61.7612 178.58 61.7612 177.299C61.7612 176.019 62.7996 174.98 64.0802 174.98H72.567C73.8479 174.98 74.8859 176.019 74.8859 177.299C74.8859 178.58 73.8479 179.618 72.567 179.618Z" fill="white"/>
<path d="M72.567 172.374H64.0802C62.7993 172.374 61.7612 171.335 61.7612 170.054C61.7612 168.773 62.7996 167.735 64.0802 167.735H72.567C73.8479 167.735 74.8859 168.774 74.8859 170.054C74.8863 171.335 73.8479 172.374 72.567 172.374Z" fill="white"/>
<path d="M126.569 130.876C141.431 130.876 153.479 118.828 153.479 103.967C153.479 89.1051 141.431 77.0575 126.569 77.0575C111.708 77.0575 99.6604 89.1051 99.6604 103.967C99.6604 118.828 111.708 130.876 126.569 130.876Z" fill="#C5C5CC"/>
<path d="M153.478 103.966C153.478 118.828 141.43 130.877 126.571 130.877C124.765 130.877 122.999 130.699 121.291 130.357C133.623 127.902 142.916 117.018 142.916 103.966C142.916 90.9138 133.623 80.0334 121.291 77.5779C122.999 77.2364 124.765 77.0587 126.571 77.0587C141.43 77.0587 153.478 89.1036 153.478 103.966Z" fill="#A4A4AF"/>
<path d="M131.917 114.296C131.385 114.296 130.85 114.113 130.413 113.741C129.351 112.835 127.838 112.312 126.259 112.308C126.252 112.308 126.245 112.308 126.238 112.308C124.668 112.308 123.16 112.82 122.098 113.716C121.119 114.542 119.656 114.417 118.83 113.438C118.004 112.459 118.129 110.996 119.108 110.17C121.03 108.549 123.579 107.664 126.274 107.669C128.973 107.678 131.512 108.581 133.424 110.213C134.398 111.044 134.514 112.508 133.683 113.482C133.224 114.02 132.572 114.296 131.917 114.296Z" fill="#A4A4AF"/>
<path d="M113.783 103.603C113.779 103.603 113.774 103.603 113.77 103.603C112.489 103.596 111.443 102.552 111.45 101.272C111.457 99.9907 112.486 98.973 113.768 98.9651H113.795C115.076 98.9721 116.109 100.016 116.102 101.297C116.095 102.573 115.058 103.603 113.783 103.603Z" fill="#A4A4AF"/>
<path d="M80.8405 56.5874C80.8405 52.0198 84.543 48.3173 89.1106 48.3173C93.6782 48.3173 97.3804 52.0198 97.3804 56.5874C97.3804 61.155 93.6779 64.8575 89.1103 64.8575C84.5427 64.8575 80.8405 61.155 80.8405 56.5874Z" fill="#E2E2E6"/>
<path d="M84.916 63.714C88.1625 62.9657 90.5811 60.0596 90.5811 56.5865C90.5811 53.117 88.1661 50.2069 84.9197 49.4586C86.1479 48.7329 87.5802 48.3173 89.111 48.3173C93.6764 48.3173 97.3799 52.021 97.3799 56.5865C97.3799 61.1556 93.6761 64.8594 89.111 64.8594C87.5802 64.8594 86.1442 64.4435 84.916 63.714Z" fill="#C5C5CC"/>
<path d="M115.943 32.6795C115.037 31.7737 113.569 31.7737 112.663 32.6795L110.788 34.5542L108.914 32.6795C108.008 31.774 106.539 31.774 105.634 32.6795C104.728 33.585 104.728 35.0536 105.634 35.9592L107.509 37.8339L105.634 39.7086C104.728 40.6142 104.728 42.0828 105.634 42.9883C106.087 43.4414 106.68 43.6674 107.274 43.6674C107.867 43.6674 108.461 43.4411 108.914 42.9883L110.788 41.1136L112.663 42.9883C113.116 43.4411 113.709 43.6674 114.303 43.6674C114.896 43.6674 115.49 43.4411 115.943 42.9883C116.848 42.0828 116.848 40.6142 115.943 39.7086L114.068 37.8339L115.943 35.9592C116.848 35.0533 116.848 33.585 115.943 32.6795Z" fill="#E2E2E6"/>
<path d="M166.52 60.5914L168.395 58.7166C169.301 57.8111 169.301 56.3425 168.395 55.437C167.49 54.5314 166.021 54.5314 165.116 55.437L163.241 57.3117L161.366 55.437C160.46 54.5314 158.992 54.5314 158.086 55.437C157.181 56.3425 157.181 57.8111 158.086 58.7166L159.961 60.5914L158.086 62.4661C157.181 63.3716 157.181 64.8402 158.086 65.7458C158.539 66.1985 159.133 66.4249 159.726 66.4249C160.32 66.4249 160.913 66.1985 161.366 65.7458L163.241 63.871L165.116 65.7458C165.568 66.1985 166.162 66.4249 166.755 66.4249C167.349 66.4249 167.942 66.1985 168.395 65.7458C169.301 64.8402 169.301 63.3716 168.395 62.4661L166.52 60.5914Z" fill="#E2E2E6"/>
<path d="M126.449 65.395C126.447 65.395 126.445 65.395 126.442 65.395C125.161 65.3914 124.126 64.3496 124.13 63.069L124.15 56.163C124.154 54.8845 125.192 53.8507 126.469 53.8507H126.476C127.757 53.8544 128.792 54.8961 128.789 56.1767L128.768 63.0827C128.764 64.3612 127.727 65.395 126.449 65.395Z" fill="#C5C5CC"/>
<path d="M116.152 68.3386C115.364 68.3386 114.595 67.9364 114.16 67.211L110.572 61.2202C109.914 60.1212 110.271 58.6971 111.37 58.039C112.469 57.3805 113.893 57.7379 114.551 58.8366L118.139 64.8274C118.797 65.9264 118.44 67.3505 117.342 68.0086C116.968 68.232 116.558 68.3386 116.152 68.3386Z" fill="#C5C5CC"/>
<path d="M136.728 68.4331C136.318 68.4331 135.903 68.3243 135.527 68.0961C134.432 67.4316 134.083 66.005 134.748 64.9103L138.372 58.9393C139.036 57.8443 140.462 57.4957 141.557 58.1602C142.652 58.8248 143.001 60.2513 142.336 61.346L138.712 67.317C138.276 68.0358 137.511 68.4331 136.728 68.4331Z" fill="#C5C5CC"/>
<path d="M147.739 50.3956C151.367 50.3956 154.308 47.4545 154.308 43.8265C154.308 40.1985 151.367 37.2574 147.739 37.2574C144.111 37.2574 141.17 40.1985 141.17 43.8265C141.17 47.4545 144.111 50.3956 147.739 50.3956Z" fill="#E2E2E6"/>
<path d="M154.307 43.8258C154.307 47.4553 151.365 50.397 147.739 50.397C146.523 50.397 145.382 50.0668 144.407 49.4875C146.985 48.8931 148.907 46.5848 148.907 43.8258C148.907 41.0699 146.988 38.7586 144.41 38.1641C145.386 37.5877 146.523 37.2577 147.739 37.2577C151.365 37.2574 154.307 40.1994 154.307 43.8258Z" fill="#C5C5CC"/>
<path d="M139.381 103.603C139.377 103.603 139.372 103.603 139.368 103.603C138.087 103.596 137.041 102.552 137.048 101.271C137.055 99.995 138.078 98.9648 139.353 98.9648H139.366H139.393C140.674 98.9719 141.707 100.016 141.7 101.297C141.693 102.573 140.655 103.603 139.381 103.603Z" fill="#A4A4AF"/>
</svg>
