<svg width="23" height="22" viewBox="0 0 23 22" fill="none" xmlns="http://www.w3.org/2000/svg">
<rect x="1.75" y="1" width="20" height="20" rx="10" stroke="#7D7D8D" stroke-width="2"/>
<path d="M11.1416 5.60315V6.297C9.7793 6.55051 8.75 7.6302 8.75 8.92151C8.75 9.8083 9.24641 10.9908 11.6018 11.5882C12.8852 11.9139 13.5393 12.4146 13.5393 13.0784C13.5393 13.893 12.7401 14.5565 11.753 14.5565C10.766 14.5565 9.96684 13.893 9.96684 13.0784C9.96684 12.7466 9.69444 12.4752 9.36147 12.4752C9.0285 12.4752 8.7561 12.7466 8.7561 13.0784C8.7561 14.3695 9.7854 15.4554 11.1477 15.7029V16.3968C11.1477 16.7286 11.4201 17 11.753 17C12.086 17 12.3584 16.7286 12.3584 16.3968V15.7029C13.7207 15.4494 14.75 14.3697 14.75 13.0784C14.75 12.1916 14.2536 11.0092 11.8982 10.4179C10.6148 10.0921 9.96074 9.59143 9.96074 8.92157C9.96074 8.10698 10.7599 7.44345 11.747 7.44345C12.734 7.44345 13.5332 8.10704 13.5332 8.92157C13.5332 9.25335 13.8056 9.52479 14.1385 9.52479C14.4715 9.52479 14.7439 9.25335 14.7439 8.92157C14.7439 7.63052 13.7146 6.54457 12.3523 6.29706V5.60322C12.3523 5.27144 12.0799 5 11.747 5C11.414 4.99975 11.1416 5.26538 11.1416 5.60322V5.60315Z" fill="#7D7D8D" stroke="#7D7D8D" stroke-width="0.5"/>
</svg>
