<svg xmlns="http://www.w3.org/2000/svg" width="314" height="235" fill="none" viewBox="0 0 314 235">
    <g fill-rule="evenodd" clip-path="url(#clip0)" clip-rule="evenodd">
        <path fill="#4354A4" d="M244.087 28.355c.111.956 1.301.226 1.413.744.07.326-1.156 1.135-1.42 1.358.854.513 1.944-.67 2.584-1.166.329.358.441.545.138.954-.534.72-.51-.235-1.145.267.264.444.497.19.833.07-.147.854.181.313.438.854.208.44.183.765.245 1.256l-.905 2.075c-.362.832-.254 1.1-1.142.821.1-.172.764-1.016.71-1.224-.061-.237-.969-.565-1.209-.764-.422-.35-.417-.651-.687-1.027.107-.35.024-.514-.25-.49l-.302.81c.025.576.512.522.8 1.072.44.842.194.345-.166 1.022-.353.666-.393 1.515-.974 1.849l.937.41c-.729.798.786.41 1.037.332l-.769 1.63c-.768-.43-1.147-1.243-1.659-1.914l-1.168 2.167 1.162-.108c-.054.102-.55.801-.507.957.173.633 1.491.276 1.346 1.105-.019.106-1.201 1.295-1.404 1.41.594.266.863.156.65.855l-.827-.499c-.235.42-.507.832-.657 1.293.029.3-.025.586-.162.856-.162.242-.345.467-.549.676-.161.423-.213 2.737-.019 3.114.434-.56 1.403.428-.233.428-.716 0-.668-.149-.942.479-.215.494-.331.925.279.973-.459.902-.361 1.597-.402 2.559-.034.779-.253 1.553-.415 2.318l.436-.625c.391.834.093 1.535-.093 2.427-.407-.535-.456.42-.804.322-.709-.202-.178-.351-.466-.815-.25-.402-.224-.518-.686-.763-.613-.326-1.687-.338-2.38-.454-1.165-.194-2.332-.242-3.51-.293-4.413-.191-8.81-.24-13.222.002-4.059.223-8.217.79-12.197 1.56-4.237.819-8.382 1.574-12.486 2.96-.793.267-1.587.825-2.379 1.021-.753.187-1.506.184-2.29.456-1.878.65-3.82 1.144-5.712 1.765-2.039.669-4.246 1.227-6.186 2.153-.843.403-1.608.948-2.451 1.356-.793.384-2.128.734-2.547 1.62-.163.347-.135.597-.034.956.204.719.364.64.917.592.77-.068 1.766-.665 2.513-.9 2.046-.643 4.117-1.158 6.197-1.674 3.737-.925 7.488-2.564 11.175-3.205 2.187-.38 4.258-1.414 6.457-1.804.482-.086 1.879-.773 2.275-.535.104.063.361.816.452.997.325.647.697 1.272 1.133 1.852 1.314 1.749 3.077 3.157 4.65 4.663 1.798 1.722 3.359 3.62 5.018 5.468l.432-.5c-.152 1.167.724 2.008 1.44 2.8.849.942 1.533 1.826 2.203 2.9.55.88 1.253 1.65 1.874 2.451.611.79 1.018 1.741 1.58 2.591 1.29 1.953 2.56 3.943 3.861 5.87.613.906 1.097 1.926 1.582 2.958.385.82 1.542 2.494 1.542 3.289-.083.389.763 2.73-.141 1.627l-.433.668.742-.31c-.751.678.651.766.682 1.145l-.375.361c-.213.438-.491.495-.832.17-.377.023-.452-.187-.871-.047.4.624.916.23 1.119 1.092.179.76-.387.923-.985 1.372l-.037.028-.013.045c-.13.389-.5.223-.911.138-.985-.202-2.072-.59-3.031-.888-2.072-.645-4.16-1.188-6.302-1.629-4.888-1.006-9.736-.959-14.669-1.277.13-.54.131-.492-.023-.826.198.428-.994-.131-.096.816-2.292.373-4.767.092-7.092.217.109-.24.357-.517.125-.692-1.101 1.588-4.778.907-6.596 1.135-1.067.133-2.121.39-3.185.558l-.448.07c-.373.059-.747.124-1.112.223-.47.126-1.253.646-1.698.525.652-1.312-.1-.176-.203-.161-.309.045-.843.149-1.288.149.508-2.032 1.377-3.904 1.728-5.997.219-1.305.819-3.406-.474-4.33-.708-.508-1.869-.617-2.689-.79-.899-.189-2.47-.18-3.253-.688-.61-.396-.74-.76-1.54-1.063-.923-.35-1.348-.697-2.281-.414.38-.474.911-.82.167-1.304-.306-.198-.904.068-1.011-.365-.552.39-.421.704-.569 1.238.014.226.073.441.179.646l-.877.352c.186-.498-.36-.201-.469-.446-.162-.367-.066-.926-.066-1.323-.602.19-1.233.425-1.497 1.05-.738-.438-.445-.468-.066-1.127-.62-.146-.751.172-.845.684l-.982-.302c.738-.005.915-.58.932-1.204l-.86.28-.177.905c-.452.382-1.627-.308-2.008-.505-1.329-.688-1.815-.886-1.628-2.449.157-1.31.504-2.625.581-3.942.085-1.462-.086-3.026-.214-4.484-.249-2.82-.65-5.6-.791-8.433-.075-1.534-.16-3.068-.22-4.602-.048-1.22-.47-2.562 1.055-2.67-.187-.59.372-1.274.948-1.597.201-.458.421-.5.661-.123.208.066.401.035.58-.092.839-.19 1.846-1.379 2.6-1.808.739-.42 2.351-1.03 2.878-1.738.511-.684-.261-.607-.105-1.235.213-.857.988.374 1.107.546.259-.26 1.249-.747 1.237-1.125l-.727-.13c.265-.152.853-.608 1.161-.668.524-.103.327-.235.747.341.146-.226.501-.968.723-1.118.106-.072.737-.12.869-.166.686-.242.617-.775 1.121-1.028.245-.123.546.066.752-.024.328-.143.329-.632.626-.809.258-.154.911-.026 1.219-.138.509-.185.487-.358.867-.697.533-.475 1.024-.407 1.618-.767.616-.373.522-1.214 1.08-1.374.746-.214.937.491 1.343-.205.091-.157-.322-.39-.063-.641.32-.31.453.06.6.3l.506-.954c.812.444.471-.129 1.091-.434.275-.135.502.132.803-.031.222-.12.26-.381.419-.543.306-.311.476-.738.95-.887-.172.054 1.233.013 1.107-.047l-.41-.6c.735 0 1.377.073 2.088-.148.252-.077.645-.197.855-.357.575-.44.446-.332.446-1.139.794.505 1.804.328 2.588-.256.409-.306.671-.671 1.12-.947.192-.1.388-.192.587-.279.249-.257.498-.26.748-.007.353-.094.349-.16.623-.33.079-.155.162-.307.251-.456.294-.031.584-.084.87-.16 1.109-.297 1.778-1.036 2.808-.381l.394-.804c.439.683.738.03 1.32-.246.243-.116.56-.145.78-.25l.372.087.315-.973c.212.082 1.052.532 1.304.509.362-.034.794-.645 1.145-.76.535-.177.343.056.868.06.404.002.595.06.944-.279-1.18-.306.308-.45.805-.553.774-.161 1.173.01 1.711-.6h-.558c.551-.5.365-.323.945-.274.183.015.978.45.98-.13.749.44.758.441 1.531.242.342-.088.633-.375 1.009-.381.367-.007.631.159.958.123.196-.02.882-.277 1.114-.361.367-.134.61-.42.961-.53.387-.122.88.023 1.286-.066 1.21-.266 1.919-.988 3.228-.597.14-1.169 1.6-.909 2.386-.788.547.084.826.305 1.392.037.461-.217.724-.562 1.238-.736.393-.134.924-.23 1.335-.316.254-.08.514-.105.779-.076.267.037.49.153.67.346l.033.039c.041-.097.661-.555.59-.498.462-.37.679-.229.963-.948l-.991-.208c.51-.035.894-.093 1.347.104.314.137.841.862 1.156.863.568 0 .766-.799.71-1.214.477 1.108.884 1.292 1.955.726l.377-.2c.255-.267.508-.262.76.015l.449.244.54-.897c.382.525.745.551 1.368.428.43-.084 1.312-.861 1.629-.861.183 0 .418.447.724.534.507.145 1.295-.22 1.475-.704l.288.607c.24-.224.48-.447.718-.671zm-18.194 75.085l-.001.018.017-.014h.001l-.017-.004zm-.622-1.054v.941l.319.058.303.055.003-.051c.013-.453-.219-.788-.625-1.003zm-28.217-3.743l-.299.915 1.006.081-.707-.996zm-39.381-24.11c.733.213.723.187.87.864.837 3.853-1.754 8.271.149 11.933-5.562-.045-11.134.066-16.663.716 0-2.098.069-4.191-.09-6.286-.072-.95-.179-1.898-.277-2.846-.123-1.203-.084-1.133.903-1.34.519-.109.704-.437 1.2-.637.372-.15.539.035.906.086.655.093.663-.017 1.264-.145 1.29-.275 2.386-.177 3.405-1.138.529-.045.358.443.726.395.268-.035.438-.533.711-.653.85-.37 2.264-.28 3.194-.396.95-.118 1.79-.546 2.7-.672.374-.052.647.015 1.002.119zM168.4 85.65c-.179.666-.966-.2-.979.322l.001.047.002-.011c.041-.09.837.962.79.927.428.321.678.291 1.162-.078-.867-.033-.772-.567-.976-1.207zm2.418.941c.317.174.414-.27.578-.542-.354-.176-.406.234-.578.542zm-.98-2.898c.123.433.115.765.115 1.212.732-.104.962-.157.976-.935l-.392.246c-.205-.406-.251-.438-.699-.523zm-5.669.725l.498-.32c-.245-.352-.68.066-.498.32zm1.853-6.465l.635-.332c-.549-.7-.59-.465-.635.332zm-.766-5.545h-.833c.163.534.833.649.833 0zm81.598-31.084l.571.332c-.495.45-1.103.903-.621 1.43.382.418 2.168.618 2.702.77-.185.213-.568.795-.821.942-.2.116-.383-.344-.787.114.67.347.49.084.316.82-.103.434-.47.9-.677 1.29-.505.948-1.021 1.89-1.55 2.823-1.085 1.916-2.227 3.8-3.428 5.647-.202-1.043.377-2.212.677-3.218.378-1.266.756-2.532 1.136-3.797.734-2.438 1.393-4.85 2.482-7.153zm-29.127 3.182l-1.459.37c.815.26.815.26 1.459-.37zm24.018-4.7c-.692.323-.766.558-.206.953l.206-.953zm-.084-7.646c-.094.41-.676.015-.805.315-.295.686.643.593.981.552l-.176-.867zm3.92-.521c-.185.877-.185.877.672 1.01l-.672-1.01zm-15.552-.605l-.001.009c.001.005.006.008.016.007l-.015-.016z"/>
        <path fill="#000" d="M121.614 122.921c-.13.668-.455.982-.114 1.596.289.521 1.118.862 1.675.73l-1.561-2.326zm-15.078-23.76l-2.746.94c.751.735 1.466 1.507 2.293 2.159l.453-3.098zm45.284 2.406c-1.309-.659-2.776-.733-4.211-.817l.655 3.528 3.556-2.711zm-31.441 91.03c-.261-.461-2.043-4.029-2.414-3.846-.196.097-.212 2.083-.24 2.366l-.307 3.014c1.054-.371 2.18-.679 2.961-1.534zm-12.452-28.84l.809 2.365c.128.375.203.928.43 1.258.295.429.073.682.466.212.423-.504.549-1.85.732-2.468l.836-2.817c-1.313-.011-2.109 1.068-3.273 1.45zm-27.586-46.431c-1.614 1.101-3.248 2.193-4.653 3.561 1.236-.077 2.956.771 4.12.373.537.115.715-.089.533-.611v-3.323zm23.934 7.788v6.428c1.507-1.282 3.093-2.472 4.543-3.82l-4.543-2.608zm53.877 16.655c-.476 2.862-.502 5.806-.632 8.702-.023.514-.222 1.288.121 1.738.345.452 1.326.702 1.824.943 1.403.679 2.797 1.376 4.196 2.063l-5.509-13.446zm35.617-17.598l10.383-5.094-10.18-4.3-.203 9.394zm-35.624 7.992c.632.046.732-2.358.837-2.994.199-1.207.403-2.413.613-3.618.419-2.41.859-4.815 1.323-7.216.927-4.802 1.95-9.586 3.083-14.343-1.218-.219-2.337-.377-3.526-.73-.961-.286-2.105-.131-2.963-.725-.111 2.229.447 4.599.653 6.828.239 2.58.368 5.145.347 7.736-.042 5.021-.233 10.043-.367 15.062zm-79.66 68.028c.6-.16-.217-8.364-.253-9.548-.105-3.425-.125-6.853-.064-10.28-3.23 2.022-6.537 3.885-9.95 5.564.876 1.136 1.698 2.36 2.67 3.417 1 1.089 2.147 1.981 3.074 3.153 1.866 2.361 3.145 5.04 4.523 7.694zm77.76-48.536c.15-2.468.29-4.93.539-7.391.107-1.047 1.121-6.611-.503-6.48-.924.074-2.544 1.423-3.391 1.896-1.118.624-2.238 1.247-3.363 1.861-2.218 1.213-4.451 2.399-6.677 3.598l13.395 6.516zm-9.64-51.314c-1.849-.138-3.637-.275-5.461-.618-.984-.186-1.968-.16-2.957-.285-.708-.09-2.093-.67-2.752-.48-.83.238-1.131 4.385-1.245 5.426-.183 1.676-.307 3.709.443 5.284 1.446 3.035 5.343.666 7.238-.607 1.625-1.092 3.466-2.197 4.907-3.523 1.277-1.174.131-3.68-.173-5.197zm9.591 33.009c1.393-.563 1.371-1.269 1.432-2.724.073-1.767.116-3.537.167-5.305.09-3.151.175-6.304.147-9.456-.027-3.08-.178-6.155-.532-9.216-.125-1.082 0-2.931-.572-3.854-.522-.842-2.141-.851-3.024-.799-.996.059-1.803 1.003-2.538 1.599-.814.662-2.487 1.592-2.62 2.578-.15 1.101.457 2.672.691 3.74.859 3.897 1.904 7.757 3.005 11.592 1.142 3.979 2.299 7.998 3.844 11.845zm-35.401-9.329c.089-.876.416-1.607-.026-2.441-.379-.718-.996-1.438-1.46-2.117-1.328-1.945-2.817-3.808-4.264-5.666-1.324-1.702-2.681-3.385-4.07-5.035-.773-.919-1.571-1.818-2.363-2.721-.58-.661-1.13-1.589-1.951-1.935-.605 3.794-1.105 7.604-1.495 11.425-.189 1.847-.351 3.697-.487 5.549-.039.523-.445 2.288-.186 2.775.274.511 1.943 1.195 2.454 1.509 1.429.876 2.54 2.196 3.899.756.935-.992 1.689-2.391 2.734-3.256.545-.451 1.058-.43 1.669-.698.711-.311.733-.61 1.582-.187 1.431.712 2.3 1.766 3.964 2.042zm-71.616 19.517c0 2.627-.18 4.786 1.604 6.912 1.559 1.858 3.179 2.288 5.372 3.021 1.291.431 1.381.033 2.427-.696.995-.692 2.078-1.247 3.058-1.961 2.114-1.539 4.226-3.127 6.28-4.746.69-.544.589-.358.484-1.012-.096-.595-.524-1.353-.758-1.919-.423-1.024-.922-2.015-1.42-3.004-.567-1.122-1.06-2.342-1.764-3.388-.292-.434-.638-.827-.979-1.223-.717-.834-.692-.803-1.55-.122-1.81 1.44-3.495 2.997-5.533 4.122-2.41 1.332-4.816 2.673-7.221 4.016zm54.597-20.343c.262-3.771.557-7.52 1.01-11.274.232-1.927.503-3.849.766-5.772.108-.783.522-2.097.291-2.858-.226-.749-1.227-1.461-1.776-2.003-.147-.146-.601-.757-.796-.784-.208-.029-.994.545-1.221.675-.802.458-1.589.941-2.364 1.442-1.46.946-2.876 1.961-4.261 3.014-2.905 2.208-5.675 4.583-8.517 6.869 2.604 2.277 5.81 4.046 8.722 5.891 1.722 1.091 3.453 2.17 5.206 3.21.889.527 1.92 1.332 2.94 1.59zm-35.605 67.422c-2.104 1.388-4.112 2.852-6.49 3.743-2.368.886-4.709 1.228-7.156 1.755-1.234.265-2.394.556-3.654.742-.706.104-1.798.064-2.442.362-.573-.122-.777.073-.612.585l.018.477c.163 2.213 1.588 4.877 2.831 6.676.726 1.051 1.651 2.028 2.57 2.911 1.038.997 1.636 1.701 3.083 1.283 2.438-.704 4.59-2.122 7.06-2.747 1.955-.495 3.579-1.531 5.485-2.067 2.351-.662 4.678-1.416 7.061-1.969-1.064-2.05-2.016-4.186-3.38-6.064-1.397-1.928-2.939-3.78-4.374-5.687zm12.9-69.006c4.398.873 9.165 1.682 13.102 3.948 1.536.884 3.483 2.251 3.933 4.08.538 2.186-1.576 3.54-3.343 4.222-2.12.819-4.429 1.133-6.676 1.392-1.19.136-2.384.211-3.58.279-.967.055-2.607-.157-3.49.225-.554-.11-.746.114-.577.672l-.03.602-.092 1.802-.183 3.601-.399 7.843c2.304-1.424 4.16-3.463 6.412-4.983 1.07-.722 2.133-1.446 3.2-2.166.447-.302.72-.725 1.16-1.006.584-.373 1.1-.598 1.648-1.086 2.236-1.995 4.722-3.72 7.093-5.551 1.076-.833 2.255-1.598 3.28-2.49 1.074-.935.925-1.705.899-3.049-.028-1.424.496-3.191.253-4.563.204-.466.047-.756-.47-.869l-1.035-.661-2.066-1.318-8.215-5.243-4.104-2.619c-.382-.244-1.628-1.345-2.057-1.313-.437.033-1.196.885-1.524 1.156-.503.416-.99.853-1.534 1.217-.271.187-.554.354-.848.501-.47.046-.634.304-.491.774-.413 1.323-.186 3.213-.267 4.603zm60.994 62.374c-.996-4.646-2.281-10.148-6.166-13.309-3.94-3.205-9.7-1.966-12.782 1.798-1.544 1.885-2.501 4.114-3.211 6.424-.73 2.371-1.806 5.46-1.609 7.967.087 1.1 1.03 2.281 1.57 3.24.556.99.926 2.411 2.238 2.068 2.034-.533 4.102-1.754 6.005-2.628 1.926-.885 3.952-1.613 5.949-2.467 1.325-.567 2.701-.998 4.023-1.574 1.253-.545 2.907-.676 3.983-1.519zm58.854-27.674c2.778.992 4.222-.596 6.177-2.384 1.851-1.694 3.858-3.323 5.563-5.165 1.759-1.898 3.149-4.141 4.501-6.334 1.367-2.216 3.215-4.61 4.057-7.078.428-1.255.611-2.646.881-3.944.065-.312.5-1.475.362-1.738-.191-.361-1.404-.399-1.737-.452-2.651-.418-5.46-.439-8.119-.065-5.144.723-9.447 3.602-11.073 8.636-1.906 5.902-.99 12.461-.612 18.524zm-18.013-51.187c-.043 1.022 2.411 1.306 3.047 1.544 1.47.551 2.932 1.132 4.36 1.783 2.939 1.341 6.074 2.214 8.889 3.835 6.068 3.495 12.656 5.959 18.786 9.301.955.521 2.822 1.776 3.913 1.67.58-.056.148.409.524-.51.135-.332.18-.762.256-1.117.227-1.062.403-2.135.658-3.192.42-1.739.848-3.353 1.025-5.141.075-.758.158-1.514.167-2.276.009-.773.187-2.708-.162-3.376-.232-.444-.278-.292-.857-.417-.332-.071-.68-.22-1-.32-.751-.233-1.503-.457-2.29-.525-.778-.068-1.274-.305-2.004-.442-.765-.143-1.552.031-2.331-.17-.842-.217-1.244-.415-2.123-.332-.853.08-1.098-.108-1.933-.34-.697-.193-1.528-.058-2.254-.117-.879-.072-1.756-.181-2.635-.251-3.956-.312-7.959.151-11.923.115-2.156-.02-4.266.297-6.419.199-1.882-.086-3.827-.065-5.694.079zm10.29 20.804c-1.924.732-3.708 1.919-5.492 2.942-2.058 1.18-4.027 2.433-5.931 3.848-3.201 2.379-6.936 5.231-7.779 9.381-.864 4.26 2.843 7.751 6.319 9.494 3.964 1.987 8.575 3.015 12.918 3.774-.465-9.806-.356-19.629-.035-29.439zm-57.566 23.088c-1.167.322-2.156 1.011-3.239 1.521-.97.457-1.908.802-2.814 1.39-1.477.958-3.189 1.779-4.732 2.52-3.82 1.834-7.528 4.112-11.309 6.144-1.003.539-1.331.879-1.67 1.988-.369 1.204-.716 2.417-1.072 3.626-.331 1.127-.859 2.332-.72 3.522.121 1.035.658 2.012 1.062 2.956 1.019 2.376 2.123 4.715 3.264 7.035 1.024 2.082 1.958 4.292 3.273 6.206 1.021-5.316 1.938-11.273 5.897-15.324 3.957-4.048 10.269-4.105 14.082.073 1.811 1.985 2.914 4.485 3.78 6.997.455 1.32.761 2.665 1.054 4.028.313 1.455.236 2.228 1.845 1.787 1.279-.35 2.634-.63 3.887-1.03.651-.207 1.285-.44 1.314-.952.037-.647-.836-1.973-1.094-2.582-1.331-3.142-2.663-6.286-3.996-9.428l-4.34-10.238-2.166-5.108c-.659-1.552-1.207-3.857-2.306-5.131zm57.674-26.54c.022-1.551.048-3.103.068-4.655.012-.925.425-2.713-.382-3.373-.5-.41-1.985-.724-2.618-1.004-1.249-.553-2.601-.799-3.857-1.348-4.921-2.151-10.041-3.942-15.107-5.676-1.092-.374-2.209-.68-3.309-1.048-.593-.198-2.792-1.365-3.341-1.06-.481.267-.844 3.449-.998 4.11-.365 1.564-.713 3.132-1.048 4.703-1.301 6.099-2.391 12.241-3.406 18.393 2.695-1.021 5.278-2.79 7.824-4.158 2.645-1.42 5.28-2.838 7.943-4.226.752-.392 3.396-2.193 4.015-1.486.992 1.134-1.373 2.465-1.994 2.951-2.401 1.879-4.939 3.518-7.507 5.157-2.661 1.7-5.431 3.201-8.106 4.869-.966.603-2.507 1.336-2.887 2.353-.488 1.308-.136 2.898.309 4.148 1.092 3.072 2.287 6.106 3.552 9.111.574 1.366 1.164 2.726 1.765 4.081.715 1.614 1.654 1.955 3.213 2.698 6.64 3.164 13.536 6.166 19.914 9.828-1.067 1.227-3.669-.789-4.722-1.299-1.951-.945-3.903-1.888-5.853-2.836-3.631-1.767-7.245-3.568-10.897-5.292 2.341 5.312 5.103 10.43 8.166 15.361-.773.262-.585.275-1.07-.189-.409-.391-.683-1.156-.96-1.647-.573-1.014-1.138-2.031-1.714-3.043-1.197-2.098-2.437-4.165-3.53-6.321-.821-1.622-1.458-4.456-3.147-5.273-2.104-1.019-4.237-2.011-6.341-3.044 0 8.077.581 15.974 1.435 24.001.043.404.432 1.599-.352 1.482-.353-.053-.473-2.268-.535-2.73-.285-2.12-.527-4.245-.725-6.375-.394-4.25-.608-8.517-.636-12.785l-1.515 12.449-.718 5.898-.377 3.098c-.057.475-.021 1.095-.188 1.548-.263.712-.174.657-.998.982.787-5.404 1.515-10.816 2.159-16.239.314-2.646.608-5.294.88-7.944.073-.713.144-1.426.214-2.139.035-.363.35-1.532.175-1.834-.172-.3-1.317-.612-1.647-.764-.721-.335-1.443-.668-2.164-1.004-2.34-1.092-4.678-2.192-6.993-3.337-1.013-.501-2.074-1.275-3.176-1.542-1.096-.266-1.893.496-2.83.98-.73.376-2.449.878-2.936 1.518-.453.595.955 2.978 1.325 3.857l3.131 7.436 6.349 15.077 1.552 3.685c.332.787.885 3.031 1.689 3.119.356.038.941-.348 1.285-.459.513-.166.987-.163 1.502-.25.944-.16 1.924-.646 2.851-.987 2.383-.876 4.852-1.442 7.254-2.261 2.412-.822 4.786-1.746 7.189-2.568 2.183-.747 4.385-1.598 6.482-2.57 2.214-1.027 4.485-1.933 6.643-3.072 3.929-2.074 7.817-4.011 11.289-6.555.816-.599 1.686-1.199 2.494-1.84.708-.562 2.059-1.256 2.541-1.995.184-.282.341-.834.127-1.169-.23-.359-1.25-.326-1.727-.39l-4.508-.604c.115.986.232 1.971.316 2.961.058.699.472 2.545-.086 3.092-.767-.727-.521-2.903-.589-3.873-.037-.518.095-1.532-.137-1.991-.255-.504-.959-.497-1.597-.635-2.706-.584-5.387-1.074-8.006-2-4.423-1.563-9.71-4.203-10.698-9.295-1.03-5.308 3.496-9.907 7.306-12.867 2.282-1.772 4.709-3.307 7.22-4.732 1.173-.665 2.346-1.331 3.527-1.982.429-.237 1.84-.725 2.066-1.14.232-.423.113-1.557.162-2.04zm-94.635 81.518l-.644.313c2.388-6.788 4.753-13.546 6.749-20.462.963-3.338 1.939-6.672 2.935-10.001.431-1.436 1.487-3.413 1.193-4.9-.317-1.61-1.079-3.322-1.668-4.853-3.773 2.366-7.625 4.611-11.46 6.87-3.438 2.026-6.935 3.828-10.398 5.832-1.774 1.027-3.604 1.721-5.456 2.56-1.505.682-.92 2.767-.899 4.159.076 4.917.073 9.851.372 14.761.108 1.788-.032 3.842 1.109 5.33 1.46 1.904 2.813 3.844 4.144 5.848.498.75 2.593 4.814 3.374 4.725.51-.058.98-1.704 1.234-2.094.55-.841 1.354-1.564 2.086-2.242 3.16-2.925 6.665-4.985 10.309-7.123 3.702-2.172 7.491-4.194 11.263-6.254.852-.465 1.77-.801 2.616-1.276.335-.188.998-.486 1.209-.822.315-.502.208-1.894.274-2.495.134-1.227.375-2.502.388-3.738.013-1.221-.723-2.27-1.256-3.335-2.341-4.675-4.615-9.361-6.652-14.177-1.606 5.592-3.292 11.159-4.867 16.76-.822 2.925-1.814 5.802-2.779 8.681-.493 1.471-.989 2.941-1.481 4.412-.383 1.146-.582 2.823-1.695 3.521zM132.29 98.59c-1.241.014-2.366-.168-3.58-.427-.445-.094-.836-.134-1.288-.174-.511-.045-.976-.322-1.425-.376-.339-.04-.931.102-1.255.21-.751.25-.727.124-.758.994-.049 1.343-.086 2.687-.16 4.03-.291 5.284-.853 10.516-1.624 15.749-.156 1.058-.592 2.446-.352 3.496.216.947 1.036 1.959 1.578 2.753 1.114 1.634 3.737 2.441 5.583 2.904 1.946.489 3.967.669 5.816 1.105.512.12 1.101-.093 1.647.029.505.112.897.388 1.364.588 1.143.49 2.42.58 3.601.959 2.342.75 4.849.705 7.193 1.425.599.184 1.116.648 1.693.807.527.145 1.07-.026 1.621.055 1.169.172 2.259.57 2.529 1.822.714-.564.814-.416.69-1.289-.079-.56-.391-1.242-.562-1.782-.437-1.376-.875-2.751-1.311-4.128-.862-2.723-1.718-5.449-2.513-8.193-.711-2.454-1.357-4.927-1.922-7.419-.288-1.267-.528-2.54-.774-3.814-.072-.369-.001-.957-.373-1.203-.337-.223-1.126.578-1.482.836-2.491 1.8-8.204 7.125-11.318 3.984-1.677-1.692-1.579-4.666-1.397-6.851.112-1.343.348-2.669.612-3.99.066-.329.47-1.388.322-1.623-.159-.252-1.822-.403-2.155-.477zm87.521 29.392l1.989.223c-.061-.535-.007-1.339-.209-1.836-.281-.689-.967-.765-1.723-1.051-1.194-.45-2.413-.842-3.594-1.328-2.564-1.052-5.116-2.12-7.682-3.173-1.124-.462-2.446-1.218-3.667-.841-1.317.407-2.616 1.236-3.847 1.843-1.394.687-2.787 1.376-4.179 2.065l-1.96.969c-1.027.507-1.163.558-1.244 1.717-.412 5.928-.382 12.086-.202 18.021.092 3.029-.011 6.075.207 9.098.017.233-.001 1.545.145 1.724.205.253 1.652.338 1.997.401 1.348.246 2.705.327 4.066.449-.321-6.895-1.499-15.045 2.05-21.352 3.564-6.336 11.182-7.708 17.853-6.929zm-61.959-67.829c.4-.908 1.088-1.675 1.676-2.471.318-.431.868-.946 1.072-1.45.289-.718.288-.564-.145-1.192-.409-.594-.401-.638-1.034-.745-.533-.089-1.101.063-1.645-.034-.55-.099-2.063-.562-1.716-1.436-.015.039.86-.392.928-.466.22-.24.29-.749.398-1.038.35-.926.472-1.525.083-2.511-.582-1.472-2.883-1.908-4.315-1.412-.716.247-1.124.771-1.445 1.43-.205.419-.252 1.024-.517 1.388-.398.549-.423.488-1.249.391-1.052-.123-1.915-.526-2.912-.808-1.086-.306-1.792.317-2.741.82-1.713.908-3.367 1.223-5.286 1.367-2.136.161-4.117-.353-6.232-.485.549 2.523 1.968 4.57 3.103 6.855.199.402.521.813.529 1.277.008.438-.628 1.034-.556 1.396.153.773 1.858 1.392 2.503 1.61 1.827.614 3.907 1.818 5.917 1.334 1.103-.265 1.696-2.002 2.733-2.13 1.392-.171.351 1.617.092 2.232 1.975.3 4.479.046 6.369-.623.947-.334 1.75-.834 2.615-1.33 1.077-.616 1.301-.786 1.775-1.969zm-34.563 37.548c-3.521.059-7.094-.447-10.623.018-.817.107-1.624.28-2.427.465-.578.132-2.412.244-2.797.672-.351.391-.353 2.19-.426 2.697-.161 1.129-.118 1.519.604 2.392 2.374 2.873 4.846 5.66 7.186 8.564 2.247 2.79 4.091 5.908 6.362 8.658 1.213-3.523 1.286-7.752 1.619-11.446.178-1.97.339-3.942.491-5.914.145-1.878.636-4.315.011-6.106zm-45.576 37.134c.408 0 1.057.128 1.453 0 .544.173.726-.031.546-.611l.026-.609c.057-1.309.12-2.617.18-3.926.056-1.196.11-2.393.157-3.59.033-.817.447-2.842.116-3.58-.222-.496-.749-.383-1.39-.456-.609-.069-1.22-.132-1.826-.226-.769-.12-1.621-.395-2.404-.223-.786.173-1.358.897-1.975 1.358-.976.729-1.974 1.43-2.958 2.148-1.79 1.304-3.561 2.632-5.336 3.956-.733.546-.873.356-.516 1.142.22.486.724 1.035 1.03 1.473.609.874 1.216 2.197 1.997 2.906 1.138 1.031 4.293.376 5.804.369 1.723-.009 3.384.018 5.096-.131zm4.46-.085c1.494-.146 3.003-.083 4.488-.283 1.614-.219 3.216-.541 4.827-.783 1.606-.241 6.493-1.216 6.01-3.608-.51-2.529-4.25-4.043-6.32-4.893-3.232-1.328-6.607-2.039-10.007-2.79-.427 2.267-.366 4.701-.444 6.998-.042 1.247-.079 2.496-.078 3.745 0 .301-.104.924.02 1.204.288.657.624.41 1.504.41zm-4.913 1.086h-9.536c1.411 2.915 2.745 5.884 4.267 8.744 1.515 2.849 3.466 5.533 5.185 8.267.435-.472 1.13-.985 1.425-1.548.328-.622.32-1.538.373-2.259.139-1.87.202-3.757.25-5.631.041-1.642.113-3.272.24-4.91.027-.359.424-2.225.197-2.532-.203-.272-1.984-.128-2.401-.131zm39.27-57.232c1.608 0 3.219-.02 4.827.007 1.46.025 3.361-.229 4.698.521 2.724 1.527-2.721 5.45-3.825 6.438 1.785.646 4.572-.636 6.32-1.223 2.161-.726 4.365-1.213 6.569-1.782.551-.142 2.915-.42 3.214-.84.296-.419-.368-2.938-.434-3.47-.063-.5-.01-1.279-.219-1.749.128-.564-.07-.762-.596-.593l-.544-.002c-1.341.01-2.683.073-4.024.117-4.607.153-9.102.357-13.669 1.075-2.124.334-4.266.744-6.379 1.153-1.778.345-1.479.634.182.638 1.299.004 2.587-.189 3.88-.29zM248.685 44.8l.821-.942-2-.57c-.71-.202-1.091-.156-.776-.947.395-.99 2.199-1.104 3.067-1.14 2.985-.13 6.122.818 8.958 1.653 1.384.408 2.469 1.038 3.64 1.877.511.367 1.101.71 1.549 1.15.465.458.658 1.043 1.113 1.502.745.751 1.699 1.125 2.064 2.21.42 1.245-.081 2.67-.702 3.756-.63 1.102-1.565 1.935-2.325 2.936-.603.795-1.863 2.965.105 2.714 1.041-.133 2.391-1.905 3.14-2.61 1.074-1.012 2.13-2.047 3.267-2.99 1.008-.835 2.17-1.692 3.518-1.839 1.421-.155 2.131.753 2.823 1.857.654 1.04.758 2.057 1.218 3.122.221.514.504.8.634 1.36.2.862.221 1.801.323 2.68.161 1.378.312 2.463.044 3.814-.251 1.265-.319 2.608-.53 3.895-.239 1.457-.438 2.92-.674 4.379-.2 1.234-.959 2.993-.214 4.142 1.79 2.76 3.938-1.303 4.503-2.82.994-2.668 1.5-5.583 2.377-8.305.47-1.456.88-2.925 1.149-4.432.223-1.246.114-2.765.798-3.875.532-.862 1.478-1.517 2.517-1.254 1.299.33 1.799 2.204 2.181 3.344 1.009 3.005.638 5.712.227 8.777-.19 1.42-.372 2.84-.698 4.236-.221.942-1.134 2.847.224 3.36 1.924.726 3.963-4.783 4.512-6.026 1.435-3.258 1.985-6.49 2.577-9.98.136-.803.24-1.622.443-2.411.177-.687.706-1.38.753-2.067.048-.688-.408-1.167.059-1.842.389-.561 1.091-.595 1.726-.6 1.491-.012 2.917.641 4.304 1.115 1.291.441 3.2 1.409 4.592 1.097-4.367-4.423-8.722-8.797-13.93-12.242-2.418-1.6-4.838-3.138-7.451-4.442-2.648-1.322-5.682-2.215-8.517-3.014-1.543-.435-3.076-.928-4.599-1.427-1.355-.444-2.72-.529-4.047-1.033-2.884-1.094-6.107-1.518-9.093-2.294-1.319-.343-2.652-.636-3.973-.954-1.389-.333-3.341-.913-4.756-.856-1.209.048-1.616 1.43-2.198 2.392-.844 1.395-1.564 2.845-2.228 4.334-1.359 3.05-2.795 6.201-3.767 9.388-.534 1.75-1.062 3.5-1.586 5.253-.454 1.517-1.59 3.706-1.288 5.263 2.237-3.44 4.319-7.011 6.126-10.694zM144.571 75.852l-3.56.161c1.183 3.88 1.018 8.011 1.018 12.033 5.529-.65 11.101-.76 16.663-.716-1.022-1.967-.626-4.518-.335-6.625.171-1.232.266-2.42.241-3.664-.023-1.166.314-2.147-.925-2.508-.983-.286-1.604.19-2.54.408-1.122.26-2.343.292-3.485.433-2.376.295-4.667.468-7.077.478zm-31.857 7.556c3.563-.986 7.349-.623 10.93-1.372-.815-.742-2.349-.303-3.431-.24-1.229.069-2.458.12-3.688.18-1.199.058-4.525-.032-4.958 1.49l1.147-.058zm130.365-54.98c-4.662.408-9.545.345-14.173 1.156-5.301.93-10.827 1.513-15.966 3.152-5.042 1.607-10.183 2.732-15.153 4.62-4.832 1.834-9.485 3.786-14.035 6.24-2.227 1.2-4.394 2.474-6.517 3.854-2.073 1.346-4.344 2.45-6.352 3.878-1.788 1.27-3.33 2.436-4.889 3.993-1.666 1.664-3.287 3.374-4.955 5.036-1.392 1.386-.511 4.776-.422 6.621.122 2.558.333 5.08.647 7.621.299 2.422.607 5.025.212 7.441-.166 1.016-.739 2.77-.465 3.785.219.812 1.67 1.407 2.411 1.672.905.324 1.831.188 2.76.6 1.038.46 1.913 1.034 3.016 1.276 1.358.298 2.886.55 4.282.558 1.292.009 2.587.426 3.875.683 2.094.419 4.139.549 4.008 3.07-.15 2.907-1.307 5.403-1.995 8.163.931 0 1.58.06 2.432-.27.996-.384 2.058-.486 3.104-.652 2.311-.367 4.563-.484 6.89-.719 4.261-.428 8.596-.377 12.86-.332 2.159.023 4.501.189 6.631.525 2.184.344 4.447.559 6.564 1.219 1.785.557 3.63.936 5.451 1.428.821.222 1.805.402 2.581.65 1.124.359 1.725 1.126 3.023 1.109-.366-2.4-1.224-4.625-1.741-7.004-.541-2.485-1.619-4.683-2.808-7.027-.531-1.046-.924-2.155-1.436-3.21-.569-1.172-1.369-2.144-2.056-3.24-1.406-2.244-2.907-4.402-4.288-6.66-1.206-1.973-2.583-3.864-3.903-5.768-1.451-2.093-3.468-3.673-5.115-5.593-.695-.811-1.357-1.565-2.135-2.31-.718-.685-1.735-2.202-2.833-2.273-.631-.041-1.725.313-2.327.503-1.114.353-2.296.582-3.447.892-1.26.34-2.497.78-3.759 1.103-.504.13-1.104.068-1.583.214-.5.153-.9.49-1.447.644-2.7.765-5.384 1.633-8.104 2.328-2.801.717-5.644 1.327-8.358 2.342-.518.194-1.094.652-1.492.35-.296-.224-.488-.858-.409-1.228.26-1.233 2.236-1.678 3.187-2.173 2.549-1.326 5.082-2.261 7.821-3.162 1.35-.443 2.694-.916 4.062-1.299 1.144-.32 2.335-.86 3.504-1.024 1.04-.146 1.779-.554 2.811-.916 1.521-.534 3.085-.972 4.631-1.427 2.642-.78 5.442-1.107 8.145-1.63 6.262-1.21 12.764-1.815 19.154-1.74 3.222.038 6.592-.056 9.776.472.767.128 2.381.103 2.911.79.284.37.13.92.203 1.32.123.674.492.989.812 1.604.68-3.328 1.461-6.586 2.338-9.865.794-2.968 1.528-5.99 2.589-8.915 1.122-3.096 2.482-6.379 4.159-9.212.345-.584 1.206-1.51 1.28-2.163.077-.673-.869-1.194-1.518-1.27-1.457-.167-3.018.12-4.449.17zm31.32 47.552c.474-4.616 1.861-9.445 1.086-14.08-.328-1.962-.584-3.835-1.567-5.606-.498-.896-.697-1.554-1.646-1.025-.961.534-1.846 1.854-2.643 2.62-1.464 1.406-2.997 2.855-4.751 3.9-1.381.822-4.124 1.602-5.162-.178-.989-1.695.33-4.062 1.277-5.46 1.084-1.602 3.137-3.084 1.985-5.059-.496-.85-1.209-1.073-1.959-1.63-.65-.483-1.193-1.109-1.843-1.6-1.881-1.425-3.945-2.035-6.118-2.849-1.003-.376-1.135-.73-1.714.13-.629.934-.974 2.242-1.429 3.274-.911 2.069-1.883 4.028-3.059 5.956-1.185 1.947-2.236 3.98-3.357 5.964-.423.749-.821 1.51-1.32 2.213-.273.382-.61.723-.831 1.142-.327.619-.181 1.183-.385 1.8-.879 2.658-2.16-1.054-2.405-1.921-.279-.987-.951-1.757-1.386-2.678-.36-.76-.605-1.89-1.474-2.248-.711-.293-1.628.11-2.354.148-1.334.072-2.677-.035-4.017.048-1.253.078-2.502.198-3.755.274-1.253.077-2.505-.135-3.742-.003-2.22.236-4.49.198-6.704.526-2.6.384-5.172.793-7.778 1.112.605 1.143 1.861 1.639 2.853 2.454.887.73 1.59 1.57 2.483 2.264.907.703 1.446 1.745 2.196 2.59.736.829 1.416 1.523 2.061 2.45 3.109 4.475 6.315 8.786 8.88 13.623 1.298 2.448 2.537 5.067 3.424 7.694.951 2.817 1.418 5.838 1.983 8.751.282 1.452.429 2.678.121 4.138-.081.348-.166.695-.253 1.041-.27.414-.17.683.301.806.275.4.651.551.675 1.098.018.417-.214.899-.573 1.134-.693.452-.693-.159-1.408-.024l-.804.434c-.141-.215-.287-.427-.436-.637-.456-.432-.818-.392-1.414-.498.303 3.478-.18 6.584-.947 9.977-.369 1.631-1.002 3.228-1.321 4.863-.356 1.825.423 2.657 1.626 3.875-.305.159-.84.332-1.092.57-.402.379-.299.425-.299 1.019.001 1.086-.208 2.156-.379 3.225-.317 1.978-.606 4.025-1.288 5.919-1.24 3.44-3.244 7.013-5.286 10.043-1.142 1.696-2.287 3.623-3.719 5.086-1.438 1.468-2.862 2.95-4.296 4.422-2.822 2.899-5.906 4.902-9.287 7.072-1.339.86-2.749 1.802-3.9 2.872-1.17 1.088-2.727 1.849-4.125 2.639-.624.353-1.068.859-1.742 1.148-.633.272-1.075.36-1.606.717-1.317.883-2.739 1.639-4.189 2.305-1.769.813-3.51 1.758-5.326 2.452-.828.316-1.606.661-2.408 1.03-.867.4-1.803.663-2.693 1.089-.752.36-1.513.57-2.279.864-.625.24-1.115.63-1.753.881-1.324.522-2.528.803-3.814 1.418-1.709.817-3.734 1.198-5.534 1.786-2.01.657-4.095 1.311-6.157 1.777-.878.198-1.626.457-2.473.757-.552.196-1.186.303-1.797.489-1.691.514-3.381 1.01-5.08 1.447-3.32.855-6.712 1.881-9.932 3.041-1.689.608-3.401 1.34-5.021 2.114-1.831.875-3.804 1.381-5.642 2.247-3.549 1.674-7.088 3.396-10.596 5.153-1.843.923-3.66 1.874-5.459 2.878-.653.364-1.367.514-2.015.871-.848.467-1.544 1.153-2.413 1.616-3.349 1.785-6.766 3.466-9.842 5.724-1.61 1.181-3.339 2.391-4.73 3.83-.459.475-1.254 1.21-1.337 1.899-.123 1.019-.008.081.346.709.49.06.6.248.333.564-.123.148-.281.223-.474.226-.618.125-1.775-.529-2.272-.802-.861-.474-1.319-1.073-1.872-1.868-1.201-1.725-2.373-3.466-3.61-5.167-1.113-1.53-2.203-3.214-3.469-4.619-.858-.952-.923-.536-1.878.001-.71.399-1.535.57-2.272.946-2.805 1.434-5.889 2.493-8.766 3.492-.656.228-1.005.589-1.58.903-.734.401-1.663.597-2.448.881-2.16.784-4.31 1.598-6.456 2.423-1.657.637-3.249 1.14-4.546 2.315-.516.469-1.14.804-1.673 1.277-.62.551-1.46 1.447-2.241 1.758l-.476.371-.968-.669-.96-.663c-.802-.557-1.599-1.121-2.396-1.685-1.81-1.279-3.63-2.546-5.312-3.99-2.989-2.565-6.09-4.992-9.216-7.394-3.28-2.521-6.478-5.159-9.87-7.529-3.075-2.148-6.43-3.961-9.412-6.228-1.5-1.141-2.998-2.29-4.53-3.395-.083-.06-1.33-.823-1.343-.908-.02-.156.39-.563.51-.694.574-.622 1.21-1.176 1.78-1.805 2.663-2.93 6.14-2.828 9.814-2.966 1.666-.063 3.473.704 5.056 1.226 1.935.638 3.802 1.575 5.671 2.384 3.853 1.668 7.828 3.092 11.72 4.637 1.53.607 3.054.903 4.61 1.32 1.578.424 3.204.02 4.892.051.876.015 1.704.066 2.587.017.523-.03 1.127-.129 1.644-.12.42.007.854.18 1.24.136 1.689-.191 3.473-.459 5.214-.678 1.73-.217 3.514-.325 5.22-.666.86-.171 1.707-.413 2.534-.704.717-.253 2.022-.539 2.61-1.051.527-.457.297-.463.003-1.209-.116-.295-.236-.743-.408-1.027-.466-.768-.916-1.01-.645-1.971.477-1.694 2.105-2.775 3.498-3.609 3.138-1.879 6.008-4.289 9.312-5.883 6.809-3.284 13.014-7.55 19.654-11.156 7.299-3.964 14.203-8.616 21.603-12.413 6.889-3.533 13.745-7.088 20.691-10.511 3.391-1.671 7.227-3.2 10.304-5.39-1.705-.211-3.415-.484-5.125-.635-.794-.07-1.597-.005-2.386-.131-.882-.141-1.717-.497-2.598-.645-1.514-.255-2.876-.773-4.392-.964-1.625-.205-3.216-.682-4.849-.815-3.416-.28-6.499-1.537-9.493-3.121-.741-.392-1.35-.168-2.06-.435-.392-.146-.807-.733-1.247-1.047-1.21-.868-2.249-1.892-3.399-2.839-2.418 5.416-7.166 9.099-11.698 12.731-2.295 1.84-4.786 3.4-7.105 5.205-1.797 1.399-3.43 2.652-5.349 3.765-1.842 1.068-3.573 2.51-5.33 3.793-1.19.87-2.586 1.526-3.853 2.281-1.034.617-3.054 1.537-3.336 2.656-.231.915.22 2.003-1.179 1.582-1.252-.376-2.16-1.763-2.889-2.74-1.886-2.528-3.645-5.142-5.396-7.763-.94 1.832-2.562 3.151-4.062 4.509-.91.825-1.856 1.591-2.84 2.327-.478.358-.96.708-1.438 1.065-.189.14-.615.357-.737.555-.286.464-.112.254-.068.815.07.878.363 1.569-.135 2.411-.468.79-1.488 1.128-2.203 1.668-1.702 1.285-3.49 2.65-5.378 3.654-.428.227-.833.425-1.232.703-.666.465-.545.634-1.216.188-1.05-.697-1.956-1.855-2.903-2.696-1.985-1.761-3.992-3.501-6.024-5.208-3.873-3.252-7.86-6.343-11.686-9.654-3.635-3.146-7.532-5.854-11.284-8.845-1.03-.821-2.046-1.658-3.062-2.495-.905-.745-2.373-1.566-3.042-2.52-.972-1.385 2.83-3.277 3.976-3.559 1.978-.486 4.535-.208 6.515.19 2.08.418 4.197 1.815 6.138 2.685 2.188.981 4.417 1.829 6.621 2.755.983.413 2.026.742 2.938 1.298.969.591 1.833 1.263 2.863 1.759 1.186.569 2.42 1.101 3.667 1.523.566.191 1.175.383 1.769.46.841.109.727-.278 1.426-.494.594-.183.735.302 1.27.436.502.128.878-.001 1.313-.271.971-.601 1.835-1.43 2.806-2.057.901-.581 1.895-1.123 2.74-1.781.376-.293.654-.695 1.025-.993.595-.477.83-.288 1.525-.616.567-.269 1.082-.77 1.622-1.102.335-.206 1.148-.466 1.364-.799.568-.875-.401-1.483-1.27-1.225-.13-.755-.797-2.549-.508-3.257.255-.627.924-.51 1.488-.841 2.117-1.247 3.68-3.514 5.66-4.979 1.867-1.382 3.514-3.031 5.364-4.438 1.584-1.205 3.316-2.382 4.758-3.682 1.706-1.536 3.89-2.732 5.745-4.104 1.916-1.416 3.696-2.993 5.591-4.426 1.824-1.378 3.615-2.818 5.489-4.131 1.684-1.179 3.45-2.256 5.099-3.452.903-.655 1.891-1.23 2.922-1.66 1.025-.428 1.922-.93 2.923-1.39 1.99-.915 4.581-1.548 6.745-1.81 2.379-.288 4.767-.547 7.169-.549 1.279 0 2.522.242 3.794.32 1.168.07 2.431.365 3.591.326.525-.018.982-.24 1.491-.168.424.06.794.316 1.25.36 1.014.1 2.035 0 3.061.132 2.357.3 4.717.728 7.079.967 2.517.254 5.011.302 7.515.73 2.446.419 4.908.853 7.34 1.336 5.169 1.029 10.392 2.032 15.479 3.559 1.19.357 2.386.696 3.529 1.185.555.238 1.088.525 1.666.703.829.254.992.35 1.419-.344.734-1.194 1.139-2.773 1.672-4.072.528-1.285 1.168-2.58 1.474-3.923-.889-.14-2.011.132-2.928.164-1.121.038-2.23.014-3.351.007-2.257-.013-4.023-.679-6.159-1.377-1.801-.59-4.198-.927-5.571-2.276-.737-.723-.982-.85-2.089-.72-1.117.13-2.22.355-3.347.393-4.25.14-8.48.88-12.749 1.026-1.154.04-4.043.586-3.853-1.368.039-.406.35-.758.411-1.175.065-.448-.047-.903-.117-1.34-.167-1.035-.342-2.07-.508-3.105-3.893 1.246-7.835 2.256-11.801 3.244-1.645.41-4.288 1.35-5.987.835-1.644-.5-.692-2.81-.18-3.916-3.265.744-6.747 1.96-10.076 2.239-1.013.085-1.999.309-2.235-.913-.187-.974.517-2.164.877-3.02-2.555-.227-5.201-.205-4.72-3.473.44-2.999 2.936-3.596 5.594-4.143 3.28-.677 6.63-.903 9.932-1.45 2.873-.476 6.007-1.008 8.94-.767 1.553.127 3.116.156 4.668.3.733.067 1.437.18 2.146.38.654.183 1.569.753 2.239.763 1.012.016 2.232-1.35 3.32-1.665 1.348-.391 2.801-.462 4.194-.558 1.578-.108 3.159-.168 4.737-.296.359-.029 1.719.06 2.003-.15.413-.306.138-1.877.109-2.523-.027-.597.088-1.715-.326-1.949-.39-.22-1.525.082-1.908.143-1.589.254-3.098.225-4.681.16-.731-.03-1.434.165-2.158.07-.776-.103-1.558-.364-2.332-.51-1.676-.313-3.202-.704-4.646-1.641-1.268-.823-2.768-1.38-3.476-2.82-.519-1.054-.73-3.088.795-3.388-1.039-1.496-1.756-3.175-2.306-4.904-.1-.313-.166-.785-.316-1.058-.527-.966-.038-.11-.79-.496-.744-.381-1.28-.683-1.861-1.347-.926-1.058-1.316-2.36-1.434-3.74-.158-1.873-.455-3.985-.181-5.848.474-3.228 2.838-5.653 5.241-7.606 1.304-1.06 3.021-1.454 4.55-2.098 1.477-.62 3.126-1.272 4.682-1.418 1.404-.131 2.773-.589 4.178-.773 1.932-.254 3.866-.16 5.807-.236.894-.036 1.785-.162 2.675-.257.502-.054 1.352.003 1.812-.195.752-.326.346.358.615-.638.511-1.894.929-3.67 1.704-5.51.722-1.716 1.598-3.355 2.757-4.821 1.087-1.375 2.496-2.381 3.776-3.556.949-.87 2.025-1.656 3.107-2.36.619-.402 1.308-.62 1.913-.975.75-.44 1.413-.775 2.257-1.045 1.812-.579 3.611-1.193 5.536-1.163 2.075.032 4.155-.45 6.175.162 3.751 1.135 5.589 5.191 5.526 8.917 1.283-.32 2.405-.935 3.764-.987 1.252-.049 2.739.06 3.968.292 2.387.45 4.841 1.773 6.264 3.78 1.357 1.913 1.56 4.453.726 6.624-.399 1.039-1.032 1.963-1.707 2.841-.494.644-1.598 1.357-1.65 2.22 9.236-2.787 18.511-4.75 28.065-6.022 4.844-.644 9.695-.321 14.543-.69 2.071-.157 4.322.063 6.463.072.904.003 1.607-.122 2.263-.706.663-.59 1.193-1.314 1.967-.461.197.217.239.743.504.907.322.198 1.258.062 1.643.086 1.347.082 2.661.31 3.983.572 2.425.482 4.835.97 7.232 1.581 4.563 1.165 9.066 2.292 13.564 3.674 4.589 1.411 9.227 3.152 13.458 5.436 2.05 1.106 4.097 2.487 5.981 3.855.876.637 1.661 1.325 2.423 2.093.815.82 1.811 1.374 2.618 2.2 1.755 1.798 3.502 3.705 5.094 5.652.832 1.017 1.594 2.09 2.334 3.173.52.76 1.889 2.153 1.573 3.135-.168.525-.755.892-1.292.763-.18-.043-.329-.275-.482-.297-.519-.074-.047-.256-.653-.01-1.204.486-1.588 1.464-3.117 1.242-2.6-.379-5.046-1.604-7.41-2.672-.675 2.576-.771 5.247-1.362 7.855-.577 2.543-1.538 4.97-2.699 7.302-1.018 2.047-2.325 4.23-4.127 5.692-1.375 1.116-4.769 2.503-5.779.126-.429-1.01.209-2.578.39-3.616.242-1.394.51-2.793.656-4.2.118-1.145.178-2.296.288-3.441.096-.985.359-3.1-.196-3.97-.334-.525-.364-.01-.558.513-.236.635-.433 1.265-.605 1.918-.368 1.39-.699 2.789-1.046 4.183-.621 2.492-1.304 4.929-2.598 7.169-1.148 1.989-2.765 4.171-5.222 4.497-1.15.153-2.65-.372-3.527-1.145-.986-.868-.691-2.299-.683-3.478zM218.299 177.715c1.351-.265 2.487-1.341 3.59-2.148 1.406-1.031 2.74-2.153 4.106-3.236 2.573-2.039 4.907-4.276 7.127-6.709 4.381-4.799 7.678-10.976 9.178-17.288.758-3.194 1.696-6.935 1.265-10.236-.149-1.146-.377-1.357-1.504-1.487-.509-.059-1.8-.205-2.258-.005-1.187.518-1.828 2.72-2.18 3.827-1.04 3.269-1.653 6.654-2.592 9.95-.922 3.23-2.406 6.507-3.874 9.528-3.267 6.72-7.808 12.343-12.858 17.804zm26.783-37.105c-.807 9.152-3.353 17.872-9.063 25.242-2.714 3.503-5.905 6.551-9.364 9.319-3.572 2.859-7.22 5.552-11.273 7.684-1.078.567-2.158 1.133-3.25 1.674-.605.3-2.133 1.406-2.832 1.231-.559-.141-.705-.572-.792-1.134-.196-1.261.625-1.89 1.455-2.7 3.335-3.253 6.68-6.518 9.798-9.979 6.157-6.835 10.783-15.019 13.354-23.85.792-2.719 1.499-5.468 2.354-8.168.521-1.645 1.259-4.572 2.99-5.392.928-.44 2.009-.012 2.985-.276.915-.247 1.522-.751 2.302.095 1.369 1.484 1.43 4.394 1.336 6.254zM1.138 193.415c-.684.242-.712.482-1.025-.22-.158-.354-.115-.838-.078-1.206.089-.88.553-1.693.934-2.473 3.59 2.955 7.318 5.619 11.168 8.23 4.117 2.792 8.048 5.897 11.941 8.989 3.487 2.771 7.016 5.459 10.466 8.263 1.665 1.353 3.562 2.402 5.144 3.796 1.278 1.126 3.398 1.631 4.488 2.956-1.727 1.03-4.033 1.86-5.947.969-2.11-.983-3.73-2.264-5.609-3.596-.968-.687-1.975-1.31-2.958-1.974-.864-.584-1.475-1.436-2.35-1.984-1.84-1.152-3.726-2.42-5.471-3.735-1.793-1.35-3.774-2.425-5.504-3.86-1.773-1.471-3.757-2.446-5.608-3.786-3.924-2.838-7.378-6.031-9.591-10.369zM106.985 42.677l-.147.785c.03.006 2.378-4.52 2.767-5.066 1.319-1.853 3.035-3.394 4.69-4.941 3.506-3.278 7.609-5.924 11.044-9.26 1.13-1.098 3.155-2.76 2.708-4.617-.444-1.844-4.195-1.47-5.479-.936-2.014.837-3.65 2.588-5.151 4.113-1.636 1.663-3.286 3.308-4.674 5.191-1.495 2.03-2.915 4.23-3.832 6.585-1.027 2.64-1.428 5.371-1.926 8.146zm.771 8.098c-1.593.49.404.821-.22 1.67-.685.932-1.835-1.938-2.007-2.48-1.014-3.201-.561-7.09-.007-10.341.28-1.64.46-3.307.837-4.929.368-1.581 1.17-3.084 1.91-4.523 1.482-2.879 3.444-5.56 5.671-7.908 2.234-2.355 4.724-4.711 7.672-6.161 2.436-1.197 6.296-.367 7.436 2.249 1.165 2.672-.41 5.583-2.273 7.462-2.431 2.451-5.079 4.885-7.809 6.998-1.403 1.087-2.579 2.4-3.942 3.534-1.451 1.206-2.706 2.42-3.778 3.98-1.039 1.512-2.108 3.023-2.784 4.739-.739 1.88-.706 3.722-.706 5.71z"/>
        <path fill="#000" d="M44.037 166.024c-3.66-2.352-7.334-4.417-10.522-7.417-3.147-2.962-5.897-6.301-9.4-8.871-1.748-1.282-3.552-2.486-5.269-3.81-1.63-1.256-3.502-2.333-4.975-3.766-1.963-1.911-5.638-5.462-3.13-8.312 3.113 3.695 7.384 6.607 11.278 9.412 4.106 2.957 7.874 6.407 11.769 9.629 3.752 3.104 7.49 6.236 11.152 9.422.961.837 1.889 1.716 2.861 2.539.12.101 1.127.739 1.127.908 0 .407-.781.661-1.06.774-.439.179-1.627.623-2.126.473-.26-.079-.265-.291-.454-.417-.108-.204-.234-.396-.378-.577l-.873.013zM259.538 125.013c-2.609-.067-6.581-.075-6.435 3.481.072 1.761 1.029 3.054 1.815 4.56.825 1.583 1.437 3.218 1.679 4.992.98 7.18-1.649 14.195-4.026 20.834 5.106-4.113 8.793-9.835 10.729-16.106.939-3.042 1.304-6.951 1.001-10.118-.152-1.585-.738-3.006-1.443-4.418-.354-.709-.708-1.519-1.273-2.093-.566-.575-1.35-.767-2.047-1.132zm-9.103 37.979c-1.685-2.766.969-6.839 1.837-9.537 1.037-3.225 1.995-6.583 2.438-9.947.465-3.523-.135-6.263-1.772-9.375-1.463-2.782-2.332-6.488-.705-9.432.655-1.185 1.623-1.33 2.773-1.803 1.412-.58 1.801-1.561 3.533-1.405 3.091.277 4.522 3.202 5.671 5.695 2.682 5.81 1.953 13.309-.334 19.144-1.316 3.358-2.817 6.844-5.051 9.703-1.096 1.401-2.384 2.616-3.72 3.786-1.446 1.264-2.741 2.789-4.67 3.171zM73.91 62.108c-4.076.817-7.794 2.65-8.447 7.22-.594 4.154 2.242 7.996 5.723 9.94 3.766 2.104 8.484 2.453 12.236.122 3.95-2.454 4.846-7.372 2.442-11.23-2.683-4.305-7.177-5.576-11.954-6.052zm2.619-1.993c4.853.71 9.357 4.156 10.992 8.797 1.685 4.785.137 10.046-4.325 12.668-9.016 5.298-21.068-3.532-18.891-13.682.552-2.577 2.121-4.572 4.253-6.081 2.353-1.666 5.2-1.712 7.97-1.702zM249.07 11.525L231.528 3.61l-.72 7.935c-.065.716-.331 1.69-.218 2.396.122.753-.137.673.848.566 1.259-.138 2.522-.448 3.768-.67 2.241-.399 4.623-.513 6.816-1.1 1.119-.3 2.191-.337 3.326-.518 1.248-.199 2.462-.567 3.722-.694zm-19.78 5.113c0-2.98.331-5.919.605-8.884.246-2.668.34-5.212 1.213-7.754.815 1.478 3.073 2.068 4.47 2.829 1.925 1.047 3.976 1.819 5.946 2.773 1.936.937 3.8 2.013 5.738 2.949.982.474 1.98.916 2.96 1.394.614.3 2.07.781 2.452 1.337 1.159 1.686-2.809 1.85-3.575 1.998-2.297.447-4.621.7-6.914 1.159-2.137.429-4.279.827-6.424 1.216-2.123.385-4.311.983-6.471.983zM48.99 90.397c2.303-.24 4.596-.583 6.895-.81 2.178-.215 4.105-.444 6.094-1.44-2.717-.818-5.44-1.592-8.18-2.33-1.36-.367-2.716-.754-4.08-1.096-1.057-.265-1.977-.418-2.383-1.568-.473-1.339.84-1.136 1.66-.796 1.13.47 2.36.76 3.53 1.151 2.614.87 5.243 1.671 7.88 2.463.82.246 5.572 1.156 3.86 2.738-.733.677-2.367 1.048-3.263 1.535-1.149.623-2.4.872-3.678 1.12-2.664.517-5.428.716-8.125 1.164l-4.13.688c-.807.134-1.118.12-1.328-.777-.154-.652.046-1.305.193-1.937.374-1.605.79-3.203 1.2-4.799.157-.609.434-3.286.978-3.578 1.235-.665.282 3.041.19 3.495-.346 1.712-.757 3.411-.943 5.148 1.213-.109 2.422-.223 3.63-.371zM81.635 104.024c.457 1.145-.302 1.401-1.222 1.798-1.194.514-2.369 1.057-3.584 1.52-2.558.974-5.134 1.879-7.631 3.006-4.762 2.149-9.588 4.212-14.276 6.513-1.165.572-2.33 1.142-3.506 1.693-1.216.569-2.61 1.528-3.91 1.854-1.134.284-1.253-.522-.58-1.265.866-.957 2.206-1.672 3.294-2.337 4.479-2.74 9.367-4.97 14.259-6.855 5.654-2.178 11.323-4.269 17.156-5.927zM94.068 39.085c-.164-3.48.302-6.97.024-10.441-4.782 4.23-2.426 10.768.325 15.359l-.35-4.918zm2.07-.199c.03 1.7.127 3.4-.039 5.09-.174 1.776.661 2.691 1.75 3.999-.925.935-3.045-1.246-3.63-1.89-1.206-1.324-2.103-3.083-2.9-4.673-1.7-3.388-2.872-7.015-1.511-10.734.504-1.379 1.121-3.253 2.457-4.056 1.466-.88 2.588.362 3.196 1.64 1.486 3.12.353 7.276.677 10.624zM146.801 211.886c2.205.175 4.377.346 6.583.486l-1.142-9.05-3.828.884c-.603.139-1.528.176-2.062.476l-.599.139c-.005.391-.01.783-.013 1.174-.015 1.159-.049 2.316-.097 3.474-.02.485-.19 1.195-.074 1.675-.206.486-.075.693.395.62l.837.122zm-1.518 2.181c-1.728-.859-1.256-3.483-1.253-5.153.002-1.063.077-2.119.105-3.18.019-.729-.148-1.632.104-2.337.447-1.253 2.636-1.219 3.762-1.132.834.065 1.533.023 2.389-.031.421-.027.892.053 1.306-.071.089-.027.932-.614.895-.615 1.512.057 1.532 3.675 1.63 4.593.243 2.263.462 4.53.66 6.797.052.6.276 1.278-.295 1.621-.516.309-1.881.004-2.451-.014-2.297-.069-4.58-.426-6.852-.478zM253.185 79.641c.999.897.519 1.823.192 2.945-.197.672-1.279 2.882-.98 3.511.345.728 1.964.907 2.657 1.137 1.207.4 2.418.802 3.56 1.366.507.25 2.334.827 2.676 1.294.197.268.268.478.121.824-.26.606-.629.285-1.26.155-2.886-.595-5.746-1.356-8.422-2.61-.746 1.728-1.378 3.492-2.009 5.265-.185.52-.361 1.7-1.064 1.785-.857.102-.868-1.043-.811-1.661.083-.902.551-1.864.834-2.718.233-.705 1.052-2.173.951-2.899-.069-.5-.375-.465-.919-.662-.514-.185-1.029-.37-1.543-.557-.824-.3-1.644-.603-2.446-.96-.44-.195-1.361-.424-1.679-.83-.185-.236-.391-1.085-.158-1.32.545-.55 4.174.931 4.92 1.133.495.135.992.237 1.472.413.182.067.397.339.594.349.834.042.901-.598 1.159-1.285.602-1.597 1.255-3.225 2.155-4.675zM45.166 111.401c-.445-1.088 4.277-2.403 5.154-2.769 2.14-.894 4.432-1.435 6.648-2.118 2.178-.671 4.347-1.394 6.49-2.171.663-.24 5.435-2.559 5.684-2.22.827 1.122-9.186 4.646-10.162 4.997-4.531 1.628-9.21 2.878-13.814 4.281zM248.283 26.285c-1.224.013-2.989.36-4.112-.137l4.112.137z"/>
        <path fill="#000" d="M76.529 60.115l-2.722-.01c.908-.21 1.816-.337 2.722.01zM218.281 59.39l1.921-.011-1.921.01zM274.399 75.98l-.015 2.053c.004-.686.009-1.37.015-2.053zM148.001 202.265l-2.045.147 2.045-.147zM151.842 71.69l-2.076.168 2.076-.168zM223.481 59.164c.49 0 .98-.002 1.466-.003l-1.466.003zM124.909 73.027l-1.826.164 1.826-.164zM151.8 29.66l-1.827.012c.607-.322 1.217-.239 1.827-.011zM40.652 134.753c-.507-.027-.92.218-1.205-.264.468-.364.737.055 1.205.264zM134.602 94.174l-1.581-.177 1.581.177zM145.283 214.067l1.044.024-1.044-.024zM226.413 27.277c-.544.05-1.088.098-1.632.146l1.632-.146zM53.929 192.035l-1.568.006 1.568-.006zM11.907 182.788l-1.583.002 1.583-.002zM145.242 72.125l-1.607.157 1.607-.157zM130.295 72.992l-1.581-.182c.523.102 1.103-.3 1.581.182zM178.031 94.104c.328-.037.788-.151 1.127-.098-.045.193-1.001.098-1.127.098zM144.596 135.363c.354.007.708.014 1.058.019l-1.058-.019zM112.661 93.344l-1.549.15 1.549-.15zM54.849 91.588l.84.023-.84-.023zM130.948 93.732l-1.325-.026 1.325.026zM48.99 90.397l-1.338.164 1.339-.164zM110.235 86.612c.275.01.551.022.823.034-.277-.01-.55-.022-.823-.034zM131.269 132.887l.836-.055-.836.055zM152.686 96.651l-1.35-.168 1.35.168zM44.037 166.024l.873-.013-.873.013zM20.043 129.789l-1.396-.141 1.396.141zM10.111 182.851l-1.373.158 1.373-.158zM259.515 59.315l-.108 1.183.108-1.183zM56.663 191.64l-1.38.159 1.38-.159zM52.147 192.096c-.466.324-.931.343-1.397.001l1.397-.001zM43.316 192.484l-1.354.001 1.354-.001zM96.138 38.886l-.116-1.198.116 1.198zM145.463 29.956l-1.361.167 1.361-.167zM147.072 29.744l-1.384.155 1.384-.155zM75.44 83.034l.848-.013-.847.013zM116.529 78.605c1.507-.248 3.013-.33 4.518-.001h-4.518zM156.696 61.7c.313-.817.391-1.124 1.156-1.547-.318.794-.368 1.219-1.156 1.547zM193.421 142.554l.091 2.547-.091-2.547zM248.037 28.247l-2.041.047 2.041-.047zM157.279 157.651l.071 2.124-.071-2.124zM73.792 134.964l2.065.015-2.065-.015zM132.29 98.59l-1.24.013 1.24-.013zM130.939 76.08c-.341-.01-.682-.022-1.02-.033l1.02.034zM82.172 134.75l1.615-.158-1.615.158zM70.448 134.991l1.581-.024-1.58.024zM76.076 134.978l1.638-.143-1.638.143zM78.066 135.841l-.81-.005.81.005zM193.183 123.671l.122-1.196-.122 1.196zM111.686 83.32l1.028.088-1.147.058c.002-.078.042-.127.119-.146zM199.639 150.46l-.066-1.089.066 1.089zM117.831 81.933l-.821.016.821-.016zM218.437 127.822l1.374.16-1.374-.16zM123.289 97.701l-.842.013.842-.013zM106.985 42.677c.297.158.143.85-.147.785l.147-.785zM259.538 125.013l-.811-.021.811.021zM94.068 39.085l-.086-1.83.086 1.83zM145.546 211.703l1.256.183-1.256-.183zM142.778 54.551c-1.477.303-2.993.462-4.435.908-.359.112-1.54.796-1.971.616-.655-.275-.323-.979-.048-1.355.738-1.005 2.058-1.567 3.268-1.555 1.208.013 2.866-.031 3.186 1.386zM138.676 57.247c1.625 1.135 2.867 1.695 3.005-.858 1.762.24.972 3.072-.361 3.285-1.451.233-2.419-1.214-2.644-2.427z"/>
    </g>
    <defs>
        <clipPath id="clip0">
            <path fill="#fff" d="M0 0H314V235H0z"/>
        </clipPath>
    </defs>
</svg>
