<svg xmlns="http://www.w3.org/2000/svg" width="210" height="32" fill="none" viewBox="0 0 210 32">
    <path fill="#000" d="M16.26 8.92c-1.01-1.29-3.03-1.9-4.56-1.9-1.77 0-4.24.81-4.24 2.95 0 5.2 13.15 1.86 13.15 11.86 0 6.38-5.12 9.4-11.01 9.4-3.67 0-6.9-1.09-9.6-3.59l4.48-4.92c1.29 1.7 3.39 2.7 5.49 2.7 2.06 0 4.36-.97 4.36-2.99 0-5.24-13.39-2.42-13.39-11.94 0-6.09 5.29-9.28 10.89-9.28 3.23 0 6.33.85 8.75 2.99l-4.32 4.72zM36.27 15.73h-5.33v6.54c0 2.1.24 3.63 2.86 3.63.65 0 1.94-.08 2.46-.56v5.04c-1.33.48-2.82.61-4.24.61-4.03 0-7.14-1.65-7.14-5.93v-9.32h-3.87V10.9h3.87V5.08h6.05v5.81h5.33v4.84h.01zM56.6 30.5h-5.81v-2.66h-.08c-.81 1.53-2.78 3.15-5.73 3.15-6.13 0-7.26-4.04-7.26-9.28V10.89h6.05v9.6c0 2.26.04 5.17 3.15 5.17 3.15 0 3.63-2.46 3.63-5V10.9h6.05v19.6zM79.84 30.5h-5.57v-2.58h-.08c-.93 1.41-3.27 3.07-6.01 3.07-5.81 0-9.64-4.2-9.64-10.13 0-5.45 3.39-10.45 8.96-10.45 2.5 0 4.84.69 6.21 2.58h.08V0h6.05v30.5zM69.43 15.73c-3.03 0-4.84 2.02-4.84 4.96s1.82 4.96 4.84 4.96c3.03 0 4.84-2.02 4.84-4.96s-1.82-4.96-4.84-4.96zM101.62 27.11c-1.94 2.46-5.12 3.87-8.27 3.87-6.05 0-10.89-4.04-10.89-10.29 0-6.25 4.84-10.29 10.89-10.29 5.65 0 9.2 4.03 9.2 10.29v1.9H88.51c.48 2.3 2.22 3.79 4.56 3.79 1.98 0 3.31-1.01 4.32-2.38l4.23 3.11zm-5.12-8.63c.04-2.02-1.53-3.71-3.71-3.71-2.66 0-4.12 1.82-4.28 3.71h7.99zM104.6 10.89h5.81v2.66h.08c.81-1.53 2.78-3.15 5.73-3.15 6.13 0 7.26 4.03 7.26 9.28V30.5h-6.05v-9.6c0-2.26-.04-5.16-3.15-5.16-3.15 0-3.63 2.46-3.63 5v9.76h-6.05V10.89zM139.5 15.73h-5.33v6.54c0 2.1.24 3.63 2.86 3.63.65 0 1.94-.08 2.46-.56v5.04c-1.33.48-2.82.61-4.24.61-4.03 0-7.14-1.65-7.14-5.93v-9.32h-3.87V10.9h3.87V5.08h6.05v5.81h5.33v4.84h.01zM142.72 1.94h2.66v12.59h15.98V1.94h2.66V30.5h-2.66V16.94h-15.98V30.5h-2.66V1.94zM185.33 25.26c0 1.37.2 4.28.2 5.25h-2.42c-.04-1.37-.08-2.91-.16-3.27h-.12c-.97 2.06-3.35 3.75-6.38 3.75-5.81 0-7.1-3.95-7.1-8.03v-11.1h2.42v10.97c0 3.03.85 5.97 4.68 5.97 3.59 0 6.46-2.5 6.46-7.63v-9.32h2.42v13.41zM189.84 0h2.42v15.13h.08c1.49-2.58 4.68-3.75 7.46-3.75 5.73 0 9.8 4.12 9.8 9.8 0 5.69-4.07 9.8-9.8 9.8-2.78 0-5.97-1.17-7.46-3.75h-.08v3.27h-2.42V0zm9.97 28.81c4.56 0 7.38-3.43 7.38-7.63 0-4.2-2.82-7.62-7.38-7.62-4.4 0-7.79 3.43-7.79 7.62 0 4.19 3.39 7.63 7.79 7.63z"/>
</svg>
