<svg xmlns="http://www.w3.org/2000/svg" width="148" height="22" fill="none" viewBox="0 0 148 22">
    <path fill="#000" d="M11.454 6.284c-.711-.909-2.134-1.339-3.212-1.339-1.247 0-2.987.57-2.987 2.078 0 3.664 9.264 1.31 9.264 8.355 0 4.495-3.607 6.622-7.756 6.622-2.586 0-4.861-.768-6.763-2.529l3.156-3.466c.909 1.198 2.388 1.902 3.867 1.902 1.452 0 3.072-.683 3.072-2.106 0-3.691-9.433-1.705-9.433-8.411C.662 3.1 4.39.852 8.334.852c2.275 0 4.459.6 6.164 2.107l-3.044 3.325zM25.55 11.081h-3.754v4.607c0 1.48.169 2.557 2.015 2.557.457 0 1.366-.056 1.732-.394v3.55c-.936.338-1.986.43-2.986.43-2.84 0-5.03-1.162-5.03-4.177v-6.566H14.8v-3.41h2.727v-4.1h4.262v4.093h3.754v3.41h.008zM39.872 21.486H35.78v-1.874h-.056c-.57 1.078-1.959 2.219-4.037 2.219-4.318 0-5.114-2.846-5.114-6.537V7.672h4.262v6.762c0 1.592.028 3.642 2.219 3.642 2.219 0 2.557-1.733 2.557-3.522V7.679h4.262v13.807zM56.243 21.486H52.32v-1.818h-.056c-.655.994-2.303 2.163-4.234 2.163-4.092 0-6.79-2.959-6.79-7.136 0-3.84 2.388-7.362 6.311-7.362 1.762 0 3.41.486 4.375 1.818h.056V0h4.262v21.486zM48.91 11.08c-2.134 0-3.41 1.423-3.41 3.494s1.283 3.494 3.41 3.494c2.135 0 3.41-1.423 3.41-3.494s-1.283-3.494-3.41-3.494zM71.586 19.098c-1.366 1.733-3.606 2.726-5.825 2.726-4.262 0-7.672-2.846-7.672-7.249s3.41-7.249 7.672-7.249c3.98 0 6.48 2.84 6.48 7.25v1.338h-9.89c.338 1.62 1.564 2.67 3.212 2.67 1.395 0 2.332-.712 3.044-1.677l2.98 2.19zm-3.606-6.08c.028-1.423-1.078-2.613-2.614-2.613-1.874 0-2.902 1.282-3.015 2.613h5.629zM73.686 7.671h4.092v1.874h.057c.57-1.078 1.958-2.219 4.036-2.219 4.319 0 5.115 2.84 5.115 6.538v7.622h-4.262v-6.763c0-1.592-.029-3.635-2.22-3.635-2.218 0-2.556 1.733-2.556 3.522v6.876h-4.262V7.67zM98.27 11.081h-3.754v4.607c0 1.48.17 2.557 2.015 2.557.458 0 1.367-.056 1.733-.394v3.55c-.937.338-1.987.43-2.987.43-2.839 0-5.03-1.162-5.03-4.177v-6.566h-2.726v-3.41h2.726v-4.1h4.262v4.093h3.755v3.41h.007zM100.539 1.367h1.874v8.869h11.257v-8.87h1.874v20.12h-1.874v-9.553h-11.257v9.553h-1.874V1.366zM130.556 17.794c0 .966.141 3.015.141 3.699h-1.705c-.028-.965-.056-2.05-.113-2.304h-.084c-.683 1.451-2.36 2.642-4.495 2.642-4.092 0-5.001-2.783-5.001-5.657v-7.82h1.705v7.729c0 2.134.598 4.205 3.296 4.205 2.529 0 4.551-1.76 4.551-5.375V8.348h1.705v9.446zM133.733 0h1.705v10.658h.056c1.05-1.817 3.297-2.641 5.255-2.641 4.037 0 6.904 2.902 6.904 6.903 0 4.009-2.867 6.904-6.904 6.904-1.958 0-4.205-.824-5.255-2.642h-.056v2.304h-1.705V0zm7.023 20.295c3.213 0 5.199-2.416 5.199-5.375 0-2.958-1.986-5.368-5.199-5.368-3.099 0-5.487 2.417-5.487 5.368 0 2.952 2.388 5.375 5.487 5.375z"/>
</svg>
